<?xml version="1.0" encoding="UTF-8" standalone="no"?>
<!DOCTYPE svg PUBLIC "-//W3C//DTD SVG 1.1//EN"
 "http://www.w3.org/Graphics/SVG/1.1/DTD/svg11.dtd">
<!-- Generated by graphviz version 2.43.0 (0)
 -->
<!-- Title: ginger/aberth_atomic.hpp Pages: 1 -->
<svg width="282pt" height="137pt"
 viewBox="0.00 0.00 282.00 137.00" xmlns="http://www.w3.org/2000/svg" xmlns:xlink="http://www.w3.org/1999/xlink">
<g id="graph0" class="graph" transform="scale(1 1) rotate(0) translate(4 133)">
<title>ginger/aberth_atomic.hpp</title>
<!-- Node1 -->
<g id="Node000001" class="node">
<title>Node1</title>
<g id="a_Node000001"><a xlink:title="Aberth&#45;Ehrlich method for polynomial root&#45;finding (atomic)">
<polygon fill="#999999" stroke="#666666" points="219.5,-129 77.5,-129 77.5,-110 219.5,-110 219.5,-129"/>
<text text-anchor="middle" x="148.5" y="-117" font-family="Helvetica,sans-Serif" font-size="10.00">ginger/aberth_atomic.hpp</text>
</a>
</g>
</g>
<!-- Node2 -->
<g id="Node000002" class="node">
<title>Node2</title>
<g id="a_Node000002"><a xlink:href="aberth_8hpp.html" target="_top" xlink:title="Aberth&#45;Ehrlich method for polynomial root&#45;finding.">
<polygon fill="white" stroke="#666666" points="183,-74 114,-74 114,-55 183,-55 183,-74"/>
<text text-anchor="middle" x="148.5" y="-62" font-family="Helvetica,sans-Serif" font-size="10.00">aberth.hpp</text>
</a>
</g>
</g>
<!-- Node1&#45;&gt;Node2 -->
<g id="edge1_Node000001_Node000002" class="edge">
<title>Node1&#45;&gt;Node2</title>
<g id="a_edge1_Node000001_Node000002"><a xlink:title=" ">
<path fill="none" stroke="#63b8ff" d="M148.5,-109.75C148.5,-102.8 148.5,-92.85 148.5,-84.13"/>
<polygon fill="#63b8ff" stroke="#63b8ff" points="152,-84.09 148.5,-74.09 145,-84.09 152,-84.09"/>
</a>
</g>
</g>
<!-- Node3 -->
<g id="Node000003" class="node">
<title>Node3</title>
<g id="a_Node000003"><a xlink:title=" ">
<polygon fill="#e0e0e0" stroke="#999999" points="59,-19 0,-19 0,0 59,0 59,-19"/>
<text text-anchor="middle" x="29.5" y="-7" font-family="Helvetica,sans-Serif" font-size="10.00">complex</text>
</a>
</g>
</g>
<!-- Node2&#45;&gt;Node3 -->
<g id="edge2_Node000002_Node000003" class="edge">
<title>Node2&#45;&gt;Node3</title>
<g id="a_edge2_Node000002_Node000003"><a xlink:title=" ">
<path fill="none" stroke="#63b8ff" d="M129.38,-54.98C110.15,-46.42 80.27,-33.11 58.19,-23.28"/>
<polygon fill="#63b8ff" stroke="#63b8ff" points="59.53,-20.04 48.97,-19.17 56.68,-26.44 59.53,-20.04"/>
</a>
</g>
</g>
<!-- Node4 -->
<g id="Node000004" class="node">
<title>Node4</title>
<g id="a_Node000004"><a xlink:title=" ">
<polygon fill="#e0e0e0" stroke="#999999" points="146,-19 77,-19 77,0 146,0 146,-19"/>
<text text-anchor="middle" x="111.5" y="-7" font-family="Helvetica,sans-Serif" font-size="10.00">lds/lds.hpp</text>
</a>
</g>
</g>
<!-- Node2&#45;&gt;Node4 -->
<g id="edge3_Node000002_Node000004" class="edge">
<title>Node2&#45;&gt;Node4</title>
<g id="a_edge3_Node000002_Node000004"><a xlink:title=" ">
<path fill="none" stroke="#63b8ff" d="M142.39,-54.75C137.22,-47.34 129.65,-36.5 123.31,-27.41"/>
<polygon fill="#63b8ff" stroke="#63b8ff" points="126.09,-25.29 117.5,-19.09 120.35,-29.29 126.09,-25.29"/>
</a>
</g>
</g>
<!-- Node5 -->
<g id="Node000005" class="node">
<title>Node5</title>
<g id="a_Node000005"><a xlink:title=" ">
<polygon fill="#e0e0e0" stroke="#999999" points="209,-19 164,-19 164,0 209,0 209,-19"/>
<text text-anchor="middle" x="186.5" y="-7" font-family="Helvetica,sans-Serif" font-size="10.00">utility</text>
</a>
</g>
</g>
<!-- Node2&#45;&gt;Node5 -->
<g id="edge4_Node000002_Node000005" class="edge">
<title>Node2&#45;&gt;Node5</title>
<g id="a_edge4_Node000002_Node000005"><a xlink:title=" ">
<path fill="none" stroke="#63b8ff" d="M154.77,-54.75C160.09,-47.34 167.86,-36.5 174.38,-27.41"/>
<polygon fill="#63b8ff" stroke="#63b8ff" points="177.36,-29.26 180.34,-19.09 171.67,-25.18 177.36,-29.26"/>
</a>
</g>
</g>
<!-- Node6 -->
<g id="Node000006" class="node">
<title>Node6</title>
<g id="a_Node000006"><a xlink:title=" ">
<polygon fill="#e0e0e0" stroke="#999999" points="274,-19 227,-19 227,0 274,0 274,-19"/>
<text text-anchor="middle" x="250.5" y="-7" font-family="Helvetica,sans-Serif" font-size="10.00">vector</text>
</a>
</g>
</g>
<!-- Node2&#45;&gt;Node6 -->
<g id="edge5_Node000002_Node000006" class="edge">
<title>Node2&#45;&gt;Node6</title>
<g id="a_edge5_Node000002_Node000006"><a xlink:title=" ">
<path fill="none" stroke="#63b8ff" d="M164.89,-54.98C181.07,-46.57 206.07,-33.59 224.88,-23.81"/>
<polygon fill="#63b8ff" stroke="#63b8ff" points="226.55,-26.89 233.81,-19.17 223.33,-20.68 226.55,-26.89"/>
</a>
</g>
</g>
</g>
</svg>
