<?xml version="1.0" encoding="UTF-8" standalone="no"?>
<!DOCTYPE svg PUBLIC "-//W3C//DTD SVG 1.1//EN"
 "http://www.w3.org/Graphics/SVG/1.1/DTD/svg11.dtd">
<!-- Generated by graphviz version 2.43.0 (0)
 -->
<!-- Title: ginger/autocorr_mt.hpp Pages: 1 -->
<svg width="275pt" height="247pt"
 viewBox="0.00 0.00 274.50 247.00" xmlns="http://www.w3.org/2000/svg" xmlns:xlink="http://www.w3.org/1999/xlink">
<g id="graph0" class="graph" transform="scale(1 1) rotate(0) translate(4 243)">
<title>ginger/autocorr_mt.hpp</title>
<!-- Node1 -->
<g id="Node000001" class="node">
<title>Node1</title>
<g id="a_Node000001"><a xlink:title="Auto&#45;correlation polynomial root&#45;finding (palindromic polynomials) (MT)">
<polygon fill="#999999" stroke="#666666" points="131,-239 0,-239 0,-220 131,-220 131,-239"/>
<text text-anchor="middle" x="65.5" y="-227" font-family="Helvetica,sans-Serif" font-size="10.00">ginger/autocorr_mt.hpp</text>
</a>
</g>
</g>
<!-- Node2 -->
<g id="Node000002" class="node">
<title>Node2</title>
<g id="a_Node000002"><a xlink:href="autocorr_8hpp.html" target="_top" xlink:title="Auto&#45;correlation polynomial root&#45;finding (palindromic polynomials)">
<polygon fill="white" stroke="#666666" points="104,-184 27,-184 27,-165 104,-165 104,-184"/>
<text text-anchor="middle" x="65.5" y="-172" font-family="Helvetica,sans-Serif" font-size="10.00">autocorr.hpp</text>
</a>
</g>
</g>
<!-- Node1&#45;&gt;Node2 -->
<g id="edge1_Node000001_Node000002" class="edge">
<title>Node1&#45;&gt;Node2</title>
<g id="a_edge1_Node000001_Node000002"><a xlink:title=" ">
<path fill="none" stroke="#63b8ff" d="M65.5,-219.75C65.5,-212.8 65.5,-202.85 65.5,-194.13"/>
<polygon fill="#63b8ff" stroke="#63b8ff" points="69,-194.09 65.5,-184.09 62,-194.09 69,-194.09"/>
</a>
</g>
</g>
<!-- Node3 -->
<g id="Node000003" class="node">
<title>Node3</title>
<g id="a_Node000003"><a xlink:title=" ">
<polygon fill="#e0e0e0" stroke="#999999" points="147,-19 102,-19 102,0 147,0 147,-19"/>
<text text-anchor="middle" x="124.5" y="-7" font-family="Helvetica,sans-Serif" font-size="10.00">utility</text>
</a>
</g>
</g>
<!-- Node2&#45;&gt;Node3 -->
<g id="edge2_Node000002_Node000003" class="edge">
<title>Node2&#45;&gt;Node3</title>
<g id="a_edge2_Node000002_Node000003"><a xlink:title=" ">
<path fill="none" stroke="#63b8ff" d="M59.58,-164.77C46.39,-144.14 17.47,-91.4 39.5,-55 50.9,-36.16 73.21,-24.91 92.11,-18.43"/>
<polygon fill="#63b8ff" stroke="#63b8ff" points="93.37,-21.7 101.88,-15.39 91.29,-15.02 93.37,-21.7"/>
</a>
</g>
</g>
<!-- Node4 -->
<g id="Node000004" class="node">
<title>Node4</title>
<g id="a_Node000004"><a xlink:title=" ">
<polygon fill="#e0e0e0" stroke="#999999" points="96,-74 49,-74 49,-55 96,-55 96,-74"/>
<text text-anchor="middle" x="72.5" y="-62" font-family="Helvetica,sans-Serif" font-size="10.00">vector</text>
</a>
</g>
</g>
<!-- Node2&#45;&gt;Node4 -->
<g id="edge3_Node000002_Node000004" class="edge">
<title>Node2&#45;&gt;Node4</title>
<g id="a_edge3_Node000002_Node000004"><a xlink:title=" ">
<path fill="none" stroke="#63b8ff" d="M66.07,-164.66C67.21,-147.17 69.76,-107.8 71.28,-84.27"/>
<polygon fill="#63b8ff" stroke="#63b8ff" points="74.78,-84.36 71.94,-74.16 67.8,-83.91 74.78,-84.36"/>
</a>
</g>
</g>
<!-- Node5 -->
<g id="Node000005" class="node">
<title>Node5</title>
<g id="a_Node000005"><a xlink:href="rootfinding_8hpp.html" target="_top" xlink:title="Parallel Bairstow root&#45;finding methods for real polynomials.">
<polygon fill="white" stroke="#666666" points="183.5,-129 93.5,-129 93.5,-110 183.5,-110 183.5,-129"/>
<text text-anchor="middle" x="138.5" y="-117" font-family="Helvetica,sans-Serif" font-size="10.00">rootfinding.hpp</text>
</a>
</g>
</g>
<!-- Node2&#45;&gt;Node5 -->
<g id="edge4_Node000002_Node000005" class="edge">
<title>Node2&#45;&gt;Node5</title>
<g id="a_edge4_Node000002_Node000005"><a xlink:title=" ">
<path fill="none" stroke="#63b8ff" d="M77.23,-164.98C88.23,-157 104.92,-144.88 118.1,-135.31"/>
<polygon fill="#63b8ff" stroke="#63b8ff" points="120.52,-137.88 126.56,-129.17 116.41,-132.21 120.52,-137.88"/>
</a>
</g>
</g>
<!-- Node5&#45;&gt;Node3 -->
<g id="edge5_Node000005_Node000003" class="edge">
<title>Node5&#45;&gt;Node3</title>
<g id="a_edge5_Node000005_Node000003"><a xlink:title=" ">
<path fill="none" stroke="#63b8ff" d="M137.35,-109.66C135.09,-92.17 129.98,-52.8 126.93,-29.27"/>
<polygon fill="#63b8ff" stroke="#63b8ff" points="130.38,-28.63 125.62,-19.16 123.44,-29.53 130.38,-28.63"/>
</a>
</g>
</g>
<!-- Node5&#45;&gt;Node4 -->
<g id="edge6_Node000005_Node000004" class="edge">
<title>Node5&#45;&gt;Node4</title>
<g id="a_edge6_Node000005_Node000004"><a xlink:title=" ">
<path fill="none" stroke="#63b8ff" d="M127.9,-109.98C118.04,-102.07 103.15,-90.11 91.28,-80.58"/>
<polygon fill="#63b8ff" stroke="#63b8ff" points="93.29,-77.7 83.3,-74.17 88.9,-83.16 93.29,-77.7"/>
</a>
</g>
</g>
<!-- Node6 -->
<g id="Node000006" class="node">
<title>Node6</title>
<g id="a_Node000006"><a xlink:href="matrix2_8hpp.html" target="_top" xlink:title="2x2 matrix template for polynomial root&#45;finding">
<polygon fill="white" stroke="#666666" points="228.5,-74 152.5,-74 152.5,-55 228.5,-55 228.5,-74"/>
<text text-anchor="middle" x="190.5" y="-62" font-family="Helvetica,sans-Serif" font-size="10.00">matrix2.hpp</text>
</a>
</g>
</g>
<!-- Node5&#45;&gt;Node6 -->
<g id="edge7_Node000005_Node000006" class="edge">
<title>Node5&#45;&gt;Node6</title>
<g id="a_edge7_Node000005_Node000006"><a xlink:title=" ">
<path fill="none" stroke="#63b8ff" d="M147.09,-109.75C154.66,-102.03 165.88,-90.6 175.01,-81.28"/>
<polygon fill="#63b8ff" stroke="#63b8ff" points="177.57,-83.68 182.07,-74.09 172.57,-78.78 177.57,-83.68"/>
</a>
</g>
</g>
<!-- Node7 -->
<g id="Node000007" class="node">
<title>Node7</title>
<g id="a_Node000007"><a xlink:href="vector2_8hpp.html" target="_top" xlink:title=" ">
<polygon fill="white" stroke="#666666" points="266.5,-19 192.5,-19 192.5,0 266.5,0 266.5,-19"/>
<text text-anchor="middle" x="229.5" y="-7" font-family="Helvetica,sans-Serif" font-size="10.00">vector2.hpp</text>
</a>
</g>
</g>
<!-- Node5&#45;&gt;Node7 -->
<g id="edge10_Node000005_Node000007" class="edge">
<title>Node5&#45;&gt;Node7</title>
<g id="a_edge10_Node000005_Node000007"><a xlink:title=" ">
<path fill="none" stroke="#63b8ff" d="M183.26,-109.92C203.45,-103.58 225.42,-92.67 237.5,-74 246.17,-60.6 242.59,-42.25 237.78,-28.72"/>
<polygon fill="#63b8ff" stroke="#63b8ff" points="240.88,-27.04 233.87,-19.09 234.39,-29.68 240.88,-27.04"/>
</a>
</g>
</g>
<!-- Node6&#45;&gt;Node3 -->
<g id="edge8_Node000006_Node000003" class="edge">
<title>Node6&#45;&gt;Node3</title>
<g id="a_edge8_Node000006_Node000003"><a xlink:title=" ">
<path fill="none" stroke="#63b8ff" d="M179.9,-54.98C170.04,-47.07 155.15,-35.11 143.28,-25.58"/>
<polygon fill="#63b8ff" stroke="#63b8ff" points="145.29,-22.7 135.3,-19.17 140.9,-28.16 145.29,-22.7"/>
</a>
</g>
</g>
<!-- Node6&#45;&gt;Node7 -->
<g id="edge9_Node000006_Node000007" class="edge">
<title>Node6&#45;&gt;Node7</title>
<g id="a_edge9_Node000006_Node000007"><a xlink:title=" ">
<path fill="none" stroke="#63b8ff" d="M196.94,-54.75C202.39,-47.34 210.36,-36.5 217.06,-27.41"/>
<polygon fill="#63b8ff" stroke="#63b8ff" points="220.07,-29.22 223.18,-19.09 214.43,-25.07 220.07,-29.22"/>
</a>
</g>
</g>
</g>
</svg>
