<?xml version="1.0" encoding="UTF-8" standalone="no"?>
<!DOCTYPE svg PUBLIC "-//W3C//DTD SVG 1.1//EN"
 "http://www.w3.org/Graphics/SVG/1.1/DTD/svg11.dtd">
<!-- Generated by graphviz version 2.43.0 (0)
 -->
<!-- Title: ginger/autocorr.hpp Pages: 1 -->
<svg width="249pt" height="192pt"
 viewBox="0.00 0.00 249.24 192.00" xmlns="http://www.w3.org/2000/svg" xmlns:xlink="http://www.w3.org/1999/xlink">
<g id="graph0" class="graph" transform="scale(1 1) rotate(0) translate(4 188)">
<title>ginger/autocorr.hpp</title>
<!-- Node1 -->
<g id="Node000001" class="node">
<title>Node1</title>
<g id="a_Node000001"><a xlink:title="Auto&#45;correlation polynomial root&#45;finding (palindromic polynomials)">
<polygon fill="#999999" stroke="#666666" points="183.94,-184 72.94,-184 72.94,-165 183.94,-165 183.94,-184"/>
<text text-anchor="middle" x="128.44" y="-172" font-family="Helvetica,sans-Serif" font-size="10.00">ginger/autocorr.hpp</text>
</a>
</g>
</g>
<!-- Node2 -->
<g id="Node000002" class="node">
<title>Node2</title>
<g id="a_Node000002"><a xlink:title=" ">
<polygon fill="#e0e0e0" stroke="#999999" points="71.94,-19 26.94,-19 26.94,0 71.94,0 71.94,-19"/>
<text text-anchor="middle" x="49.44" y="-7" font-family="Helvetica,sans-Serif" font-size="10.00">utility</text>
</a>
</g>
</g>
<!-- Node1&#45;&gt;Node2 -->
<g id="edge1_Node000001_Node000002" class="edge">
<title>Node1&#45;&gt;Node2</title>
<g id="a_edge1_Node000001_Node000002"><a xlink:title=" ">
<path fill="none" stroke="#63b8ff" d="M107.71,-164.93C77.4,-151.07 22.42,-120.48 2.44,-74 -5.51,-55.5 11.11,-37.34 26.74,-25.2"/>
<polygon fill="#63b8ff" stroke="#63b8ff" points="29.11,-27.82 35.16,-19.12 25.01,-22.14 29.11,-27.82"/>
</a>
</g>
</g>
<!-- Node3 -->
<g id="Node000003" class="node">
<title>Node3</title>
<g id="a_Node000003"><a xlink:title=" ">
<polygon fill="#e0e0e0" stroke="#999999" points="228.94,-74 181.94,-74 181.94,-55 228.94,-55 228.94,-74"/>
<text text-anchor="middle" x="205.44" y="-62" font-family="Helvetica,sans-Serif" font-size="10.00">vector</text>
</a>
</g>
</g>
<!-- Node1&#45;&gt;Node3 -->
<g id="edge2_Node000001_Node000003" class="edge">
<title>Node1&#45;&gt;Node3</title>
<g id="a_edge2_Node000001_Node000003"><a xlink:title=" ">
<path fill="none" stroke="#63b8ff" d="M142.66,-164.9C154.75,-156.95 171.79,-144.09 182.44,-129 191.95,-115.53 197.95,-97.7 201.43,-84.36"/>
<polygon fill="#63b8ff" stroke="#63b8ff" points="204.89,-84.94 203.78,-74.41 198.07,-83.33 204.89,-84.94"/>
</a>
</g>
</g>
<!-- Node4 -->
<g id="Node000004" class="node">
<title>Node4</title>
<g id="a_Node000004"><a xlink:href="matrix2_8hpp.html" target="_top" xlink:title="2x2 matrix template for polynomial root&#45;finding">
<polygon fill="white" stroke="#666666" points="87.44,-74 11.44,-74 11.44,-55 87.44,-55 87.44,-74"/>
<text text-anchor="middle" x="49.44" y="-62" font-family="Helvetica,sans-Serif" font-size="10.00">matrix2.hpp</text>
</a>
</g>
</g>
<!-- Node1&#45;&gt;Node4 -->
<g id="edge3_Node000001_Node000004" class="edge">
<title>Node1&#45;&gt;Node4</title>
<g id="a_edge3_Node000001_Node000004"><a xlink:title=" ">
<path fill="none" stroke="#63b8ff" d="M114.32,-164.83C102.3,-156.83 85.29,-143.94 74.44,-129 64.65,-115.52 58.07,-97.69 54.13,-84.35"/>
<polygon fill="#63b8ff" stroke="#63b8ff" points="57.43,-83.14 51.43,-74.4 50.67,-84.97 57.43,-83.14"/>
</a>
</g>
</g>
<!-- Node5 -->
<g id="Node000005" class="node">
<title>Node5</title>
<g id="a_Node000005"><a xlink:href="vector2_8hpp.html" target="_top" xlink:title=" ">
<polygon fill="white" stroke="#666666" points="190.44,-19 116.44,-19 116.44,0 190.44,0 190.44,-19"/>
<text text-anchor="middle" x="153.44" y="-7" font-family="Helvetica,sans-Serif" font-size="10.00">vector2.hpp</text>
</a>
</g>
</g>
<!-- Node1&#45;&gt;Node5 -->
<g id="edge11_Node000001_Node000005" class="edge">
<title>Node1&#45;&gt;Node5</title>
<g id="a_edge11_Node000001_Node000005"><a xlink:title=" ">
<path fill="none" stroke="#63b8ff" d="M147.03,-165C162.75,-157.19 185.24,-144.49 201.44,-129 222.73,-108.64 229.84,-102.18 238.44,-74 240.9,-65.92 242.81,-62.22 238.44,-55 229.3,-39.89 213.15,-29.67 197.37,-22.87"/>
<polygon fill="#63b8ff" stroke="#63b8ff" points="198.25,-19.46 187.66,-19.07 195.7,-25.97 198.25,-19.46"/>
</a>
</g>
</g>
<!-- Node6 -->
<g id="Node000006" class="node">
<title>Node6</title>
<g id="a_Node000006"><a xlink:href="rootfinding_8hpp.html" target="_top" xlink:title="Parallel Bairstow root&#45;finding methods for real polynomials.">
<polygon fill="white" stroke="#666666" points="173.44,-129 83.44,-129 83.44,-110 173.44,-110 173.44,-129"/>
<text text-anchor="middle" x="128.44" y="-117" font-family="Helvetica,sans-Serif" font-size="10.00">rootfinding.hpp</text>
</a>
</g>
</g>
<!-- Node1&#45;&gt;Node6 -->
<g id="edge6_Node000001_Node000006" class="edge">
<title>Node1&#45;&gt;Node6</title>
<g id="a_edge6_Node000001_Node000006"><a xlink:title=" ">
<path fill="none" stroke="#63b8ff" d="M128.44,-164.75C128.44,-157.8 128.44,-147.85 128.44,-139.13"/>
<polygon fill="#63b8ff" stroke="#63b8ff" points="131.94,-139.09 128.44,-129.09 124.94,-139.09 131.94,-139.09"/>
</a>
</g>
</g>
<!-- Node4&#45;&gt;Node2 -->
<g id="edge4_Node000004_Node000002" class="edge">
<title>Node4&#45;&gt;Node2</title>
<g id="a_edge4_Node000004_Node000002"><a xlink:title=" ">
<path fill="none" stroke="#63b8ff" d="M49.44,-54.75C49.44,-47.8 49.44,-37.85 49.44,-29.13"/>
<polygon fill="#63b8ff" stroke="#63b8ff" points="52.94,-29.09 49.44,-19.09 45.94,-29.09 52.94,-29.09"/>
</a>
</g>
</g>
<!-- Node4&#45;&gt;Node5 -->
<g id="edge5_Node000004_Node000005" class="edge">
<title>Node4&#45;&gt;Node5</title>
<g id="a_edge5_Node000004_Node000005"><a xlink:title=" ">
<path fill="none" stroke="#63b8ff" d="M66.15,-54.98C82.65,-46.57 108.14,-33.59 127.32,-23.81"/>
<polygon fill="#63b8ff" stroke="#63b8ff" points="129.11,-26.83 136.43,-19.17 125.93,-20.59 129.11,-26.83"/>
</a>
</g>
</g>
<!-- Node6&#45;&gt;Node2 -->
<g id="edge7_Node000006_Node000002" class="edge">
<title>Node6&#45;&gt;Node2</title>
<g id="a_edge7_Node000006_Node000002"><a xlink:title=" ">
<path fill="none" stroke="#63b8ff" d="M125.16,-109.75C120.14,-96.98 109.71,-72.83 96.44,-55 88.43,-44.23 77.66,-33.83 68.45,-25.79"/>
<polygon fill="#63b8ff" stroke="#63b8ff" points="70.46,-22.9 60.56,-19.13 65.95,-28.25 70.46,-22.9"/>
</a>
</g>
</g>
<!-- Node6&#45;&gt;Node3 -->
<g id="edge8_Node000006_Node000003" class="edge">
<title>Node6&#45;&gt;Node3</title>
<g id="a_edge8_Node000006_Node000003"><a xlink:title=" ">
<path fill="none" stroke="#63b8ff" d="M140.81,-109.98C152.53,-101.92 170.36,-89.65 184.33,-80.03"/>
<polygon fill="#63b8ff" stroke="#63b8ff" points="186.59,-82.72 192.84,-74.17 182.62,-76.96 186.59,-82.72"/>
</a>
</g>
</g>
<!-- Node6&#45;&gt;Node4 -->
<g id="edge9_Node000006_Node000004" class="edge">
<title>Node6&#45;&gt;Node4</title>
<g id="a_edge9_Node000006_Node000004"><a xlink:title=" ">
<path fill="none" stroke="#63b8ff" d="M115.75,-109.98C103.61,-101.84 85.08,-89.41 70.69,-79.76"/>
<polygon fill="#63b8ff" stroke="#63b8ff" points="72.62,-76.84 62.36,-74.17 68.72,-82.65 72.62,-76.84"/>
</a>
</g>
</g>
<!-- Node6&#45;&gt;Node5 -->
<g id="edge10_Node000006_Node000005" class="edge">
<title>Node6&#45;&gt;Node5</title>
<g id="a_edge10_Node000006_Node000005"><a xlink:title=" ">
<path fill="none" stroke="#63b8ff" d="M130.49,-109.66C134.55,-92.09 143.73,-52.45 149.17,-28.95"/>
<polygon fill="#63b8ff" stroke="#63b8ff" points="152.59,-29.69 151.44,-19.16 145.77,-28.11 152.59,-29.69"/>
</a>
</g>
</g>
</g>
</svg>
