<?xml version="1.0" encoding="UTF-8" standalone="no"?>
<!DOCTYPE svg PUBLIC "-//W3C//DTD SVG 1.1//EN"
 "http://www.w3.org/Graphics/SVG/1.1/DTD/svg11.dtd">
<!-- Generated by graphviz version 2.43.0 (0)
 -->
<!-- Title: autocorr_init Pages: 1 -->
<svg width="410pt" height="102pt"
 viewBox="0.00 0.00 410.00 102.00" xmlns="http://www.w3.org/2000/svg" xmlns:xlink="http://www.w3.org/1999/xlink">
<g id="graph0" class="graph" transform="scale(1 1) rotate(0) translate(4 98)">
<title>autocorr_init</title>
<!-- coeffs -->
<g id="node1" class="node">
<title>coeffs</title>
<polygon fill="#a9cce3" stroke="black" points="116,-94 0,-94 0,-56 116,-56 116,-94"/>
<text text-anchor="middle" x="58" y="-78.8" font-family="Times,serif" font-size="14.00">Polynomial</text>
<text text-anchor="middle" x="58" y="-63.8" font-family="Times,serif" font-size="14.00">coeffs [a0..an]</text>
</g>
<!-- init -->
<g id="node3" class="node">
<title>init</title>
<polygon fill="#f9e79f" stroke="black" points="265,-73.5 152,-73.5 152,-20.5 265,-20.5 265,-73.5"/>
<text text-anchor="middle" x="208.5" y="-58.3" font-family="Times,serif" font-size="14.00">Initial factors</text>
<text text-anchor="middle" x="208.5" y="-43.3" font-family="Times,serif" font-size="14.00">r_k, q_k</text>
<text text-anchor="middle" x="208.5" y="-28.3" font-family="Times,serif" font-size="14.00">on unit circle</text>
</g>
<!-- coeffs&#45;&gt;init -->
<g id="edge1" class="edge">
<title>coeffs&#45;&gt;init</title>
<path fill="none" stroke="black" d="M116.41,-64.17C124.74,-62.6 133.37,-60.98 141.85,-59.38"/>
<polygon fill="black" stroke="black" points="142.53,-62.81 151.7,-57.52 141.23,-55.93 142.53,-62.81"/>
</g>
<!-- vdc -->
<g id="node2" class="node">
<title>vdc</title>
<polygon fill="#d4e6f1" stroke="black" points="110,-38 6,-38 6,0 110,0 110,-38"/>
<text text-anchor="middle" x="58" y="-22.8" font-family="Times,serif" font-size="14.00">VdC(2)</text>
<text text-anchor="middle" x="58" y="-7.8" font-family="Times,serif" font-size="14.00">circle points</text>
</g>
<!-- vdc&#45;&gt;init -->
<g id="edge2" class="edge">
<title>vdc&#45;&gt;init</title>
<path fill="none" stroke="black" d="M110.11,-28.64C120.34,-30.57 131.23,-32.62 141.88,-34.63"/>
<polygon fill="black" stroke="black" points="141.51,-38.12 151.98,-36.53 142.81,-31.24 141.51,-38.12"/>
</g>
<!-- autocorr -->
<g id="node4" class="node">
<title>autocorr</title>
<polygon fill="#d5f5e3" stroke="black" points="402,-66 301,-66 301,-28 402,-28 402,-66"/>
<text text-anchor="middle" x="351.5" y="-50.8" font-family="Times,serif" font-size="14.00">Palindromic</text>
<text text-anchor="middle" x="351.5" y="-35.8" font-family="Times,serif" font-size="14.00">symmetry</text>
</g>
<!-- init&#45;&gt;autocorr -->
<g id="edge3" class="edge">
<title>init&#45;&gt;autocorr</title>
<path fill="none" stroke="black" d="M265.23,-47C273.55,-47 282.15,-47 290.55,-47"/>
<polygon fill="black" stroke="black" points="290.66,-50.5 300.66,-47 290.66,-43.5 290.66,-50.5"/>
</g>
</g>
</svg>
