<?xml version="1.0" encoding="UTF-8" standalone="no"?>
<!DOCTYPE svg PUBLIC "-//W3C//DTD SVG 1.1//EN"
 "http://www.w3.org/Graphics/SVG/1.1/DTD/svg11.dtd">
<!-- Generated by graphviz version 2.43.0 (0)
 -->
<!-- Title: bairstow_iter Pages: 1 -->
<svg width="896pt" height="81pt"
 viewBox="0.00 0.00 895.70 81.00" xmlns="http://www.w3.org/2000/svg" xmlns:xlink="http://www.w3.org/1999/xlink">
<g id="graph0" class="graph" transform="scale(1 1) rotate(0) translate(4 77)">
<title>bairstow_iter</title>
<!-- init -->
<g id="node1" class="node">
<title>init</title>
<polygon fill="#a9cce3" stroke="black" points="59,-38 0,-38 0,0 59,0 59,-38"/>
<text text-anchor="middle" x="29.5" y="-22.8" font-family="Times,serif" font-size="14.00">Initial</text>
<text text-anchor="middle" x="29.5" y="-7.8" font-family="Times,serif" font-size="14.00">(r, q)</text>
</g>
<!-- horner -->
<g id="node2" class="node">
<title>horner</title>
<polygon fill="#d4e6f1" stroke="black" points="181,-38 96,-38 96,0 181,0 181,-38"/>
<text text-anchor="middle" x="138.5" y="-22.8" font-family="Times,serif" font-size="14.00">Synthetic</text>
<text text-anchor="middle" x="138.5" y="-7.8" font-family="Times,serif" font-size="14.00">division</text>
</g>
<!-- init&#45;&gt;horner -->
<g id="edge1" class="edge">
<title>init&#45;&gt;horner</title>
<path fill="none" stroke="black" d="M59.17,-19C67.36,-19 76.54,-19 85.66,-19"/>
<polygon fill="black" stroke="black" points="85.87,-22.5 95.87,-19 85.87,-15.5 85.87,-22.5"/>
</g>
<!-- jacobian -->
<g id="node3" class="node">
<title>jacobian</title>
<polygon fill="#d4e6f1" stroke="black" points="301,-73 218,-73 218,-35 301,-35 301,-73"/>
<text text-anchor="middle" x="259.5" y="-57.8" font-family="Times,serif" font-size="14.00">Jacobian</text>
<text text-anchor="middle" x="259.5" y="-42.8" font-family="Times,serif" font-size="14.00">+ adjoint</text>
</g>
<!-- horner&#45;&gt;jacobian -->
<g id="edge2" class="edge">
<title>horner&#45;&gt;jacobian</title>
<path fill="none" stroke="black" d="M181.12,-31.24C189.88,-33.82 199.21,-36.56 208.25,-39.22"/>
<polygon fill="black" stroke="black" points="207.32,-42.6 217.91,-42.06 209.3,-35.88 207.32,-42.6"/>
</g>
<!-- newton -->
<g id="node4" class="node">
<title>newton</title>
<polygon fill="#d4e6f1" stroke="black" points="483,-73 358,-73 358,-35 483,-35 483,-73"/>
<text text-anchor="middle" x="420.5" y="-57.8" font-family="Times,serif" font-size="14.00">Newton step</text>
<text text-anchor="middle" x="420.5" y="-42.8" font-family="Times,serif" font-size="14.00">Delta r, Delta q</text>
</g>
<!-- jacobian&#45;&gt;newton -->
<g id="edge3" class="edge">
<title>jacobian&#45;&gt;newton</title>
<path fill="none" stroke="black" d="M301.03,-54C315.15,-54 331.44,-54 347.33,-54"/>
<polygon fill="black" stroke="black" points="347.7,-57.5 357.7,-54 347.7,-50.5 347.7,-57.5"/>
</g>
<!-- check -->
<g id="node5" class="node">
<title>check</title>
<polygon fill="#f9e79f" stroke="black" points="618.35,-37 520.15,-19 618.35,-1 716.55,-19 618.35,-37"/>
<text text-anchor="middle" x="618.35" y="-15.3" font-family="Times,serif" font-size="14.00">|P|,|Q| &lt; tol?</text>
</g>
<!-- newton&#45;&gt;check -->
<g id="edge4" class="edge">
<title>newton&#45;&gt;check</title>
<path fill="none" stroke="black" d="M483.2,-42.97C507.14,-38.7 534.44,-33.82 558.13,-29.58"/>
<polygon fill="black" stroke="black" points="558.82,-33.02 568.05,-27.81 557.59,-26.12 558.82,-33.02"/>
</g>
<!-- check&#45;&gt;horner -->
<g id="edge5" class="edge">
<title>check&#45;&gt;horner</title>
<path fill="none" stroke="#e74c3c" stroke-dasharray="5,2" d="M520.04,-19C420.53,-19 269.76,-19 191.2,-19"/>
<polygon fill="#e74c3c" stroke="#e74c3c" points="191.07,-15.5 181.07,-19 191.07,-22.5 191.07,-15.5"/>
<text text-anchor="middle" x="329.5" y="-22.8" font-family="Times,serif" font-size="14.00">No</text>
</g>
<!-- done -->
<g id="node6" class="node">
<title>done</title>
<polygon fill="#7fb3d8" stroke="black" points="887.7,-38 777.7,-38 777.7,0 887.7,0 887.7,-38"/>
<text text-anchor="middle" x="832.7" y="-22.8" font-family="Times,serif" font-size="14.00">Quadratic</text>
<text text-anchor="middle" x="832.7" y="-7.8" font-family="Times,serif" font-size="14.00">factor found!</text>
</g>
<!-- check&#45;&gt;done -->
<g id="edge6" class="edge">
<title>check&#45;&gt;done</title>
<path fill="none" stroke="#27ae60" d="M716.82,-19C733.91,-19 751.29,-19 767.19,-19"/>
<polygon fill="#27ae60" stroke="#27ae60" points="767.41,-22.5 777.41,-19 767.41,-15.5 767.41,-22.5"/>
<text text-anchor="middle" x="747.2" y="-22.8" font-family="Times,serif" font-size="14.00">Yes</text>
</g>
</g>
</svg>
