<?xml version="1.0" encoding="UTF-8" standalone="no"?>
<!DOCTYPE svg PUBLIC "-//W3C//DTD SVG 1.1//EN"
 "http://www.w3.org/Graphics/SVG/1.1/DTD/svg11.dtd">
<!-- Generated by graphviz version 2.43.0 (0)
 -->
<!-- Title: pbairstow_atomic_flow Pages: 1 -->
<svg width="1154pt" height="114pt"
 viewBox="0.00 0.00 1154.00 114.00" xmlns="http://www.w3.org/2000/svg" xmlns:xlink="http://www.w3.org/1999/xlink">
<g id="graph0" class="graph" transform="scale(1 1) rotate(0) translate(4 110)">
<title>pbairstow_atomic_flow</title>
<!-- init -->
<g id="node1" class="node">
<title>init</title>
<polygon fill="#a9cce3" stroke="black" points="139,-72 0,-72 0,-34 139,-34 139,-72"/>
<text text-anchor="middle" x="69.5" y="-56.8" font-family="Times,serif" font-size="14.00">Initial</text>
<text text-anchor="middle" x="69.5" y="-41.8" font-family="Times,serif" font-size="14.00">quadratic factors</text>
</g>
<!-- buffer -->
<g id="node2" class="node">
<title>buffer</title>
<polygon fill="#f9e79f" stroke="black" points="289,-72 176,-72 176,-34 289,-34 289,-72"/>
<text text-anchor="middle" x="232.5" y="-56.8" font-family="Times,serif" font-size="14.00">Atomic buffer</text>
<text text-anchor="middle" x="232.5" y="-41.8" font-family="Times,serif" font-size="14.00">built once</text>
</g>
<!-- init&#45;&gt;buffer -->
<g id="edge1" class="edge">
<title>init&#45;&gt;buffer</title>
<path fill="none" stroke="black" d="M139.25,-53C147.97,-53 156.88,-53 165.56,-53"/>
<polygon fill="black" stroke="black" points="165.61,-56.5 175.61,-53 165.61,-49.5 165.61,-56.5"/>
</g>
<!-- spawn -->
<g id="node3" class="node">
<title>spawn</title>
<polygon fill="#d4e6f1" stroke="black" points="450,-72 326,-72 326,-34 450,-34 450,-72"/>
<text text-anchor="middle" x="388" y="-56.8" font-family="Times,serif" font-size="14.00">Spawn threads</text>
<text text-anchor="middle" x="388" y="-41.8" font-family="Times,serif" font-size="14.00">one per factor</text>
</g>
<!-- buffer&#45;&gt;spawn -->
<g id="edge2" class="edge">
<title>buffer&#45;&gt;spawn</title>
<path fill="none" stroke="black" d="M289.35,-53C297.85,-53 306.73,-53 315.51,-53"/>
<polygon fill="black" stroke="black" points="315.75,-56.5 325.75,-53 315.75,-49.5 315.75,-56.5"/>
</g>
<!-- thread -->
<g id="node4" class="node">
<title>thread</title>
<polygon fill="#d4e6f1" stroke="black" points="624,-79.5 487,-79.5 487,-26.5 624,-26.5 624,-79.5"/>
<text text-anchor="middle" x="555.5" y="-64.3" font-family="Times,serif" font-size="14.00">Each thread:</text>
<text text-anchor="middle" x="555.5" y="-49.3" font-family="Times,serif" font-size="14.00">read latest slots,</text>
<text text-anchor="middle" x="555.5" y="-34.3" font-family="Times,serif" font-size="14.00">write own slot</text>
</g>
<!-- spawn&#45;&gt;thread -->
<g id="edge3" class="edge">
<title>spawn&#45;&gt;thread</title>
<path fill="none" stroke="black" d="M450.16,-53C458.85,-53 467.89,-53 476.85,-53"/>
<polygon fill="black" stroke="black" points="476.91,-56.5 486.91,-53 476.91,-49.5 476.91,-56.5"/>
</g>
<!-- sync -->
<g id="node5" class="node">
<title>sync</title>
<polygon fill="#f9e79f" stroke="black" points="779,-106 681,-53 779,0 877,-53 779,-106"/>
<text text-anchor="middle" x="779" y="-64.3" font-family="Times,serif" font-size="14.00">Sync +</text>
<text text-anchor="middle" x="779" y="-49.3" font-family="Times,serif" font-size="14.00">check all</text>
<text text-anchor="middle" x="779" y="-34.3" font-family="Times,serif" font-size="14.00">converged?</text>
</g>
<!-- thread&#45;&gt;sync -->
<g id="edge4" class="edge">
<title>thread&#45;&gt;sync</title>
<path fill="none" stroke="black" d="M624.17,-53.86C630.2,-53.92 636.21,-53.97 642,-54 651.83,-54.06 662.06,-54.07 672.29,-54.05"/>
<polygon fill="black" stroke="black" points="672.53,-57.55 682.52,-54.02 672.51,-50.55 672.53,-57.55"/>
</g>
<!-- sync&#45;&gt;thread -->
<g id="edge5" class="edge">
<title>sync&#45;&gt;thread</title>
<path fill="none" stroke="#e74c3c" stroke-dasharray="5,2" d="M709.25,-37.56C687.75,-34.44 663.91,-32.72 642,-35 639.49,-35.26 636.95,-35.56 634.39,-35.9"/>
<polygon fill="#e74c3c" stroke="#e74c3c" points="633.82,-32.45 624.44,-37.37 634.84,-39.37 633.82,-32.45"/>
<text text-anchor="middle" x="652.5" y="-38.8" font-family="Times,serif" font-size="14.00">No</text>
</g>
<!-- extract -->
<g id="node6" class="node">
<title>extract</title>
<polygon fill="#d5f5e3" stroke="black" points="1008,-72 938,-72 938,-34 1008,-34 1008,-72"/>
<text text-anchor="middle" x="973" y="-56.8" font-family="Times,serif" font-size="14.00">Extract</text>
<text text-anchor="middle" x="973" y="-41.8" font-family="Times,serif" font-size="14.00">factors</text>
</g>
<!-- sync&#45;&gt;extract -->
<g id="edge6" class="edge">
<title>sync&#45;&gt;extract</title>
<path fill="none" stroke="#27ae60" d="M877.12,-53C894.81,-53 912.44,-53 927.62,-53"/>
<polygon fill="#27ae60" stroke="#27ae60" points="927.71,-56.5 937.71,-53 927.71,-49.5 927.71,-56.5"/>
<text text-anchor="middle" x="907.5" y="-56.8" font-family="Times,serif" font-size="14.00">Yes</text>
</g>
<!-- done -->
<g id="node7" class="node">
<title>done</title>
<polygon fill="#7fb3d8" stroke="black" points="1146,-72 1069,-72 1069,-34 1146,-34 1146,-72"/>
<text text-anchor="middle" x="1107.5" y="-56.8" font-family="Times,serif" font-size="14.00">All roots</text>
<text text-anchor="middle" x="1107.5" y="-41.8" font-family="Times,serif" font-size="14.00">found!</text>
</g>
<!-- extract&#45;&gt;done -->
<g id="edge7" class="edge">
<title>extract&#45;&gt;done</title>
<path fill="none" stroke="#27ae60" d="M1008.12,-53C1023.49,-53 1041.9,-53 1058.61,-53"/>
<polygon fill="#27ae60" stroke="#27ae60" points="1058.76,-56.5 1068.76,-53 1058.76,-49.5 1058.76,-56.5"/>
<text text-anchor="middle" x="1038.5" y="-56.8" font-family="Times,serif" font-size="14.00">Yes</text>
</g>
</g>
</svg>
