<?xml version="1.0" encoding="UTF-8" standalone="no"?>
<!DOCTYPE svg PUBLIC "-//W3C//DTD SVG 1.1//EN"
 "http://www.w3.org/Graphics/SVG/1.1/DTD/svg11.dtd">
<!-- Generated by graphviz version 2.43.0 (0)
 -->
<!-- Title: pbairstow_flow Pages: 1 -->
<svg width="1007pt" height="114pt"
 viewBox="0.00 0.00 1007.00 114.00" xmlns="http://www.w3.org/2000/svg" xmlns:xlink="http://www.w3.org/1999/xlink">
<g id="graph0" class="graph" transform="scale(1 1) rotate(0) translate(4 110)">
<title>pbairstow_flow</title>
<!-- init -->
<g id="node1" class="node">
<title>init</title>
<polygon fill="#a9cce3" stroke="black" points="139,-72 0,-72 0,-34 139,-34 139,-72"/>
<text text-anchor="middle" x="69.5" y="-56.8" font-family="Times,serif" font-size="14.00">Initial</text>
<text text-anchor="middle" x="69.5" y="-41.8" font-family="Times,serif" font-size="14.00">quadratic factors</text>
</g>
<!-- spawn -->
<g id="node2" class="node">
<title>spawn</title>
<polygon fill="#d4e6f1" stroke="black" points="300,-72 176,-72 176,-34 300,-34 300,-72"/>
<text text-anchor="middle" x="238" y="-56.8" font-family="Times,serif" font-size="14.00">Spawn threads</text>
<text text-anchor="middle" x="238" y="-41.8" font-family="Times,serif" font-size="14.00">one per factor</text>
</g>
<!-- init&#45;&gt;spawn -->
<g id="edge1" class="edge">
<title>init&#45;&gt;spawn</title>
<path fill="none" stroke="black" d="M139.18,-53C147.94,-53 156.92,-53 165.71,-53"/>
<polygon fill="black" stroke="black" points="165.93,-56.5 175.93,-53 165.93,-49.5 165.93,-56.5"/>
</g>
<!-- thread -->
<g id="node3" class="node">
<title>thread</title>
<polygon fill="#d4e6f1" stroke="black" points="477,-79.5 337,-79.5 337,-26.5 477,-26.5 477,-79.5"/>
<text text-anchor="middle" x="407" y="-64.3" font-family="Times,serif" font-size="14.00">Each thread:</text>
<text text-anchor="middle" x="407" y="-49.3" font-family="Times,serif" font-size="14.00">Bairstow Newton</text>
<text text-anchor="middle" x="407" y="-34.3" font-family="Times,serif" font-size="14.00">in (r_i, q_i)</text>
</g>
<!-- spawn&#45;&gt;thread -->
<g id="edge2" class="edge">
<title>spawn&#45;&gt;thread</title>
<path fill="none" stroke="black" d="M300.24,-53C308.89,-53 317.9,-53 326.83,-53"/>
<polygon fill="black" stroke="black" points="326.87,-56.5 336.87,-53 326.87,-49.5 326.87,-56.5"/>
</g>
<!-- sync -->
<g id="node4" class="node">
<title>sync</title>
<polygon fill="#f9e79f" stroke="black" points="632,-106 534,-53 632,0 730,-53 632,-106"/>
<text text-anchor="middle" x="632" y="-64.3" font-family="Times,serif" font-size="14.00">Sync +</text>
<text text-anchor="middle" x="632" y="-49.3" font-family="Times,serif" font-size="14.00">check all</text>
<text text-anchor="middle" x="632" y="-34.3" font-family="Times,serif" font-size="14.00">converged?</text>
</g>
<!-- thread&#45;&gt;sync -->
<g id="edge3" class="edge">
<title>thread&#45;&gt;sync</title>
<path fill="none" stroke="black" d="M477.33,-53.87C483.31,-53.92 489.26,-53.97 495,-54 504.83,-54.06 515.06,-54.07 525.29,-54.05"/>
<polygon fill="black" stroke="black" points="525.53,-57.55 535.52,-54.02 525.51,-50.55 525.53,-57.55"/>
</g>
<!-- sync&#45;&gt;thread -->
<g id="edge4" class="edge">
<title>sync&#45;&gt;thread</title>
<path fill="none" stroke="#e74c3c" stroke-dasharray="5,2" d="M562.26,-37.61C540.75,-34.48 516.92,-32.76 495,-35 492.45,-35.26 489.86,-35.56 487.26,-35.9"/>
<polygon fill="#e74c3c" stroke="#e74c3c" points="486.53,-32.47 477.13,-37.37 487.53,-39.4 486.53,-32.47"/>
<text text-anchor="middle" x="505.5" y="-38.8" font-family="Times,serif" font-size="14.00">No</text>
</g>
<!-- extract -->
<g id="node5" class="node">
<title>extract</title>
<polygon fill="#d5f5e3" stroke="black" points="861,-72 791,-72 791,-34 861,-34 861,-72"/>
<text text-anchor="middle" x="826" y="-56.8" font-family="Times,serif" font-size="14.00">Extract</text>
<text text-anchor="middle" x="826" y="-41.8" font-family="Times,serif" font-size="14.00">factors</text>
</g>
<!-- sync&#45;&gt;extract -->
<g id="edge5" class="edge">
<title>sync&#45;&gt;extract</title>
<path fill="none" stroke="#27ae60" d="M730.12,-53C747.81,-53 765.44,-53 780.62,-53"/>
<polygon fill="#27ae60" stroke="#27ae60" points="780.71,-56.5 790.71,-53 780.71,-49.5 780.71,-56.5"/>
<text text-anchor="middle" x="760.5" y="-56.8" font-family="Times,serif" font-size="14.00">Yes</text>
</g>
<!-- done -->
<g id="node6" class="node">
<title>done</title>
<polygon fill="#7fb3d8" stroke="black" points="999,-72 922,-72 922,-34 999,-34 999,-72"/>
<text text-anchor="middle" x="960.5" y="-56.8" font-family="Times,serif" font-size="14.00">All roots</text>
<text text-anchor="middle" x="960.5" y="-41.8" font-family="Times,serif" font-size="14.00">found!</text>
</g>
<!-- extract&#45;&gt;done -->
<g id="edge6" class="edge">
<title>extract&#45;&gt;done</title>
<path fill="none" stroke="#27ae60" d="M861.12,-53C876.49,-53 894.9,-53 911.61,-53"/>
<polygon fill="#27ae60" stroke="#27ae60" points="911.76,-56.5 921.76,-53 911.76,-49.5 911.76,-56.5"/>
<text text-anchor="middle" x="891.5" y="-56.8" font-family="Times,serif" font-size="14.00">Yes</text>
</g>
</g>
</svg>
