<?xml version="1.0" encoding="UTF-8" standalone="no"?>
<!DOCTYPE svg PUBLIC "-//W3C//DTD SVG 1.1//EN"
 "http://www.w3.org/Graphics/SVG/1.1/DTD/svg11.dtd">
<!-- Generated by graphviz version 2.43.0 (0)
 -->
<!-- Title: pbairstow_ac_flow Pages: 1 -->
<svg width="1028pt" height="84pt"
 viewBox="0.00 0.00 1028.00 84.00" xmlns="http://www.w3.org/2000/svg" xmlns:xlink="http://www.w3.org/1999/xlink">
<g id="graph0" class="graph" transform="scale(1 1) rotate(0) translate(4 80)">
<title>pbairstow_ac_flow</title>
<!-- coeffs -->
<g id="node1" class="node">
<title>coeffs</title>
<polygon fill="#a9cce3" stroke="black" points="101,-57 0,-57 0,-19 101,-19 101,-57"/>
<text text-anchor="middle" x="50.5" y="-41.8" font-family="Times,serif" font-size="14.00">Palindromic</text>
<text text-anchor="middle" x="50.5" y="-26.8" font-family="Times,serif" font-size="14.00">polynomial</text>
</g>
<!-- spawn -->
<g id="node2" class="node">
<title>spawn</title>
<polygon fill="#f9e79f" stroke="black" points="262,-57 138,-57 138,-19 262,-19 262,-57"/>
<text text-anchor="middle" x="200" y="-41.8" font-family="Times,serif" font-size="14.00">Spawn threads</text>
<text text-anchor="middle" x="200" y="-26.8" font-family="Times,serif" font-size="14.00">one per factor</text>
</g>
<!-- coeffs&#45;&gt;spawn -->
<g id="edge1" class="edge">
<title>coeffs&#45;&gt;spawn</title>
<path fill="none" stroke="black" d="M101.03,-38C109.6,-38 118.66,-38 127.68,-38"/>
<polygon fill="black" stroke="black" points="127.81,-41.5 137.81,-38 127.81,-34.5 127.81,-41.5"/>
</g>
<!-- thread -->
<g id="node3" class="node">
<title>thread</title>
<polygon fill="#d4e6f1" stroke="black" points="439,-72 299,-72 299,-4 439,-4 439,-72"/>
<text text-anchor="middle" x="369" y="-56.8" font-family="Times,serif" font-size="14.00">Each thread:</text>
<text text-anchor="middle" x="369" y="-41.8" font-family="Times,serif" font-size="14.00">Bairstow Newton</text>
<text text-anchor="middle" x="369" y="-26.8" font-family="Times,serif" font-size="14.00">(r_i, q_i) with</text>
<text text-anchor="middle" x="369" y="-11.8" font-family="Times,serif" font-size="14.00">reciprocal pairs</text>
</g>
<!-- spawn&#45;&gt;thread -->
<g id="edge2" class="edge">
<title>spawn&#45;&gt;thread</title>
<path fill="none" stroke="black" d="M262.24,-38C270.89,-38 279.9,-38 288.83,-38"/>
<polygon fill="black" stroke="black" points="288.87,-41.5 298.87,-38 288.87,-34.5 288.87,-41.5"/>
</g>
<!-- sync -->
<g id="node4" class="node">
<title>sync</title>
<polygon fill="#f9e79f" stroke="black" points="594,-76 496,-38 594,0 692,-38 594,-76"/>
<text text-anchor="middle" x="594" y="-41.8" font-family="Times,serif" font-size="14.00">Sync all</text>
<text text-anchor="middle" x="594" y="-26.8" font-family="Times,serif" font-size="14.00">converged?</text>
</g>
<!-- thread&#45;&gt;sync -->
<g id="edge3" class="edge">
<title>thread&#45;&gt;sync</title>
<path fill="none" stroke="black" d="M439.33,-38.87C445.31,-38.92 451.26,-38.97 457,-39 467.11,-39.06 477.64,-39.07 488.17,-39.05"/>
<polygon fill="black" stroke="black" points="488.27,-42.55 498.25,-39.02 488.24,-35.55 488.27,-42.55"/>
</g>
<!-- sync&#45;&gt;thread -->
<g id="edge4" class="edge">
<title>sync&#45;&gt;thread</title>
<path fill="none" stroke="#e74c3c" stroke-dasharray="5,2" d="M532.16,-23.83C508.71,-19.98 481.64,-17.48 457,-20 454.45,-20.26 451.86,-20.56 449.26,-20.9"/>
<polygon fill="#e74c3c" stroke="#e74c3c" points="448.53,-17.47 439.13,-22.37 449.53,-24.4 448.53,-17.47"/>
<text text-anchor="middle" x="467.5" y="-23.8" font-family="Times,serif" font-size="14.00">No</text>
</g>
<!-- extract -->
<g id="node5" class="node">
<title>extract</title>
<polygon fill="#d5f5e3" stroke="black" points="882,-64.5 753,-64.5 753,-11.5 882,-11.5 882,-64.5"/>
<text text-anchor="middle" x="817.5" y="-49.3" font-family="Times,serif" font-size="14.00">Extract</text>
<text text-anchor="middle" x="817.5" y="-34.3" font-family="Times,serif" font-size="14.00">reciprocal roots</text>
<text text-anchor="middle" x="817.5" y="-19.3" font-family="Times,serif" font-size="14.00">(r, 1/r)</text>
</g>
<!-- sync&#45;&gt;extract -->
<g id="edge5" class="edge">
<title>sync&#45;&gt;extract</title>
<path fill="none" stroke="#27ae60" d="M692.15,-38C709.03,-38 726.34,-38 742.47,-38"/>
<polygon fill="#27ae60" stroke="#27ae60" points="742.88,-41.5 752.88,-38 742.88,-34.5 742.88,-41.5"/>
<text text-anchor="middle" x="722.5" y="-41.8" font-family="Times,serif" font-size="14.00">Yes</text>
</g>
<!-- done -->
<g id="node6" class="node">
<title>done</title>
<polygon fill="#7fb3d8" stroke="black" points="1020,-57 943,-57 943,-19 1020,-19 1020,-57"/>
<text text-anchor="middle" x="981.5" y="-41.8" font-family="Times,serif" font-size="14.00">All roots</text>
<text text-anchor="middle" x="981.5" y="-26.8" font-family="Times,serif" font-size="14.00">found!</text>
</g>
<!-- extract&#45;&gt;done -->
<g id="edge6" class="edge">
<title>extract&#45;&gt;done</title>
<path fill="none" stroke="#27ae60" d="M882.06,-38C898.93,-38 916.86,-38 932.73,-38"/>
<polygon fill="#27ae60" stroke="#27ae60" points="932.83,-41.5 942.83,-38 932.83,-34.5 932.83,-41.5"/>
<text text-anchor="middle" x="912.5" y="-41.8" font-family="Times,serif" font-size="14.00">Yes</text>
</g>
</g>
</svg>
