<?xml version="1.0" encoding="UTF-8" standalone="no"?>
<!DOCTYPE svg PUBLIC "-//W3C//DTD SVG 1.1//EN"
 "http://www.w3.org/Graphics/SVG/1.1/DTD/svg11.dtd">
<!-- Generated by graphviz version 2.43.0 (0)
 -->
<!-- Title: aberth_iter Pages: 1 -->
<svg width="765pt" height="86pt"
 viewBox="0.00 0.00 764.67 86.00" xmlns="http://www.w3.org/2000/svg" xmlns:xlink="http://www.w3.org/1999/xlink">
<g id="graph0" class="graph" transform="scale(1 1) rotate(0) translate(4 82)">
<title>aberth_iter</title>
<!-- init -->
<g id="node1" class="node">
<title>init</title>
<polygon fill="#a9cce3" stroke="black" points="101,-38 0,-38 0,0 101,0 101,-38"/>
<text text-anchor="middle" x="50.5" y="-22.8" font-family="Times,serif" font-size="14.00">Initial</text>
<text text-anchor="middle" x="50.5" y="-7.8" font-family="Times,serif" font-size="14.00">guesses z_k</text>
</g>
<!-- eval -->
<g id="node2" class="node">
<title>eval</title>
<polygon fill="#d4e6f1" stroke="black" points="253,-38 138,-38 138,0 253,0 253,-38"/>
<text text-anchor="middle" x="195.5" y="-22.8" font-family="Times,serif" font-size="14.00">Evaluate</text>
<text text-anchor="middle" x="195.5" y="-7.8" font-family="Times,serif" font-size="14.00">P(z_k), P&#39;(z_k)</text>
</g>
<!-- init&#45;&gt;eval -->
<g id="edge1" class="edge">
<title>init&#45;&gt;eval</title>
<path fill="none" stroke="black" d="M101.11,-19C109.67,-19 118.69,-19 127.61,-19"/>
<polygon fill="black" stroke="black" points="127.62,-22.5 137.62,-19 127.62,-15.5 127.62,-22.5"/>
</g>
<!-- update -->
<g id="node3" class="node">
<title>update</title>
<polygon fill="#d4e6f1" stroke="black" points="365,-78 290,-78 290,-40 365,-40 365,-78"/>
<text text-anchor="middle" x="327.5" y="-62.8" font-family="Times,serif" font-size="14.00">Update</text>
<text text-anchor="middle" x="327.5" y="-47.8" font-family="Times,serif" font-size="14.00">z_k_new</text>
</g>
<!-- eval&#45;&gt;update -->
<g id="edge2" class="edge">
<title>eval&#45;&gt;update</title>
<path fill="none" stroke="black" d="M253.14,-36.43C262.19,-39.21 271.46,-42.06 280.23,-44.76"/>
<polygon fill="black" stroke="black" points="279.29,-48.14 289.88,-47.73 281.35,-41.45 279.29,-48.14"/>
</g>
<!-- check -->
<g id="node4" class="node">
<title>check</title>
<polygon fill="#f9e79f" stroke="black" points="494.83,-37 402.16,-19 494.83,-1 587.5,-19 494.83,-37"/>
<text text-anchor="middle" x="494.83" y="-15.3" font-family="Times,serif" font-size="14.00">Converged?</text>
</g>
<!-- update&#45;&gt;check -->
<g id="edge3" class="edge">
<title>update&#45;&gt;check</title>
<path fill="none" stroke="black" d="M365.19,-50.12C388.12,-44.58 417.97,-37.35 443.14,-31.26"/>
<polygon fill="black" stroke="black" points="443.99,-34.66 452.89,-28.91 442.35,-27.86 443.99,-34.66"/>
</g>
<!-- check&#45;&gt;eval -->
<g id="edge4" class="edge">
<title>check&#45;&gt;eval</title>
<path fill="none" stroke="#e74c3c" stroke-dasharray="5,2" d="M413.97,-16.69C376.36,-15.89 330.87,-15.34 290,-16 281.39,-16.14 272.33,-16.35 263.38,-16.59"/>
<polygon fill="#e74c3c" stroke="#e74c3c" points="263.25,-13.1 253.35,-16.88 263.45,-20.09 263.25,-13.1"/>
<text text-anchor="middle" x="327.5" y="-19.8" font-family="Times,serif" font-size="14.00">No</text>
</g>
<!-- done -->
<g id="node5" class="node">
<title>done</title>
<polygon fill="#7fb3d8" stroke="black" points="756.67,-37 648.67,-37 648.67,-1 756.67,-1 756.67,-37"/>
<text text-anchor="middle" x="702.67" y="-15.3" font-family="Times,serif" font-size="14.00">Roots found!</text>
</g>
<!-- check&#45;&gt;done -->
<g id="edge5" class="edge">
<title>check&#45;&gt;done</title>
<path fill="none" stroke="#27ae60" d="M587.62,-19C604.68,-19 622.15,-19 638.13,-19"/>
<polygon fill="#27ae60" stroke="#27ae60" points="638.4,-22.5 648.4,-19 638.4,-15.5 638.4,-22.5"/>
<text text-anchor="middle" x="618.17" y="-22.8" font-family="Times,serif" font-size="14.00">Yes</text>
</g>
</g>
</svg>
