<?xml version="1.0" encoding="UTF-8" standalone="no"?>
<!DOCTYPE svg PUBLIC "-//W3C//DTD SVG 1.1//EN"
 "http://www.w3.org/Graphics/SVG/1.1/DTD/svg11.dtd">
<!-- Generated by graphviz version 2.43.0 (0)
 -->
<!-- Title: ginger/matrix2.hpp Pages: 1 -->
<svg width="277pt" height="137pt"
 viewBox="0.00 0.00 276.57 137.00" xmlns="http://www.w3.org/2000/svg" xmlns:xlink="http://www.w3.org/1999/xlink">
<g id="graph0" class="graph" transform="scale(1 1) rotate(0) translate(4 133)">
<title>ginger/matrix2.hpp</title>
<!-- Node1 -->
<g id="Node000001" class="node">
<title>Node1</title>
<g id="a_Node000001"><a xlink:title="2x2 matrix template for polynomial root&#45;finding">
<polygon fill="#999999" stroke="#666666" points="124.57,-129 14.57,-129 14.57,-110 124.57,-110 124.57,-129"/>
<text text-anchor="middle" x="69.57" y="-117" font-family="Helvetica,sans-Serif" font-size="10.00">ginger/matrix2.hpp</text>
</a>
</g>
</g>
<!-- Node2 -->
<g id="Node000002" class="node">
<title>Node2</title>
<g id="a_Node000002"><a xlink:href="autocorr_8hpp.html" target="_top" xlink:title="Auto&#45;correlation polynomial root&#45;finding (palindromic polynomials)">
<polygon fill="white" stroke="#666666" points="151.07,-19 40.07,-19 40.07,0 151.07,0 151.07,-19"/>
<text text-anchor="middle" x="95.57" y="-7" font-family="Helvetica,sans-Serif" font-size="10.00">ginger/autocorr.hpp</text>
</a>
</g>
</g>
<!-- Node1&#45;&gt;Node2 -->
<g id="edge1_Node000001_Node000002" class="edge">
<title>Node1&#45;&gt;Node2</title>
<g id="a_edge1_Node000001_Node000002"><a xlink:title=" ">
<path fill="none" stroke="#63b8ff" d="M39.01,-105.52C16.12,-93.82 -9.2,-75.36 3.57,-55 15.16,-36.51 36.85,-25.52 56.26,-19.08"/>
<polygon fill="#63b8ff" stroke="#63b8ff" points="37.69,-108.77 48.22,-109.96 40.73,-102.47 37.69,-108.77"/>
</a>
</g>
</g>
<!-- Node3 -->
<g id="Node000003" class="node">
<title>Node3</title>
<g id="a_Node000003"><a xlink:href="bairstow_8hpp.html" target="_top" xlink:title="Bairstow&#39;s root&#45;finding method with reference&#45;based vectors.">
<polygon fill="white" stroke="#666666" points="126.07,-74 13.07,-74 13.07,-55 126.07,-55 126.07,-74"/>
<text text-anchor="middle" x="69.57" y="-62" font-family="Helvetica,sans-Serif" font-size="10.00">ginger/bairstow.hpp</text>
</a>
</g>
</g>
<!-- Node1&#45;&gt;Node3 -->
<g id="edge2_Node000001_Node000003" class="edge">
<title>Node1&#45;&gt;Node3</title>
<g id="a_edge2_Node000001_Node000003"><a xlink:title=" ">
<path fill="none" stroke="#63b8ff" d="M69.57,-99.66C69.57,-90.93 69.57,-80.99 69.57,-74.09"/>
<polygon fill="#63b8ff" stroke="#63b8ff" points="66.07,-99.75 69.57,-109.75 73.07,-99.75 66.07,-99.75"/>
</a>
</g>
</g>
<!-- Node4 -->
<g id="Node000004" class="node">
<title>Node4</title>
<g id="a_Node000004"><a xlink:href="rootfinding_8hpp.html" target="_top" xlink:title="Parallel Bairstow root&#45;finding methods for real polynomials.">
<polygon fill="white" stroke="#666666" points="268.57,-74 144.57,-74 144.57,-55 268.57,-55 268.57,-74"/>
<text text-anchor="middle" x="206.57" y="-62" font-family="Helvetica,sans-Serif" font-size="10.00">ginger/rootfinding.hpp</text>
</a>
</g>
</g>
<!-- Node1&#45;&gt;Node4 -->
<g id="edge3_Node000001_Node000004" class="edge">
<title>Node1&#45;&gt;Node4</title>
<g id="a_edge3_Node000001_Node000004"><a xlink:title=" ">
<path fill="none" stroke="#63b8ff" d="M101.13,-106.29C126.52,-96.47 161.57,-82.91 184.16,-74.17"/>
<polygon fill="#63b8ff" stroke="#63b8ff" points="99.64,-103.11 91.58,-109.98 102.17,-109.64 99.64,-103.11"/>
</a>
</g>
</g>
<!-- Node4&#45;&gt;Node2 -->
<g id="edge4_Node000004_Node000002" class="edge">
<title>Node4&#45;&gt;Node2</title>
<g id="a_edge4_Node000004_Node000002"><a xlink:title=" ">
<path fill="none" stroke="#63b8ff" d="M179.62,-50.63C159.17,-40.87 131.62,-27.71 113.73,-19.17"/>
<polygon fill="#63b8ff" stroke="#63b8ff" points="178.2,-53.83 188.73,-54.98 181.22,-47.52 178.2,-53.83"/>
</a>
</g>
</g>
</g>
</svg>
