<?xml version="1.0" encoding="UTF-8" standalone="no"?>
<!DOCTYPE svg PUBLIC "-//W3C//DTD SVG 1.1//EN"
 "http://www.w3.org/Graphics/SVG/1.1/DTD/svg11.dtd">
<!-- Generated by graphviz version 2.43.0 (0)
 -->
<!-- Title: ginger/rootfinding.hpp Pages: 1 -->
<svg width="194pt" height="137pt"
 viewBox="0.00 0.00 194.23 137.00" xmlns="http://www.w3.org/2000/svg" xmlns:xlink="http://www.w3.org/1999/xlink">
<g id="graph0" class="graph" transform="scale(1 1) rotate(0) translate(4 133)">
<title>ginger/rootfinding.hpp</title>
<!-- Node1 -->
<g id="Node000001" class="node">
<title>Node1</title>
<g id="a_Node000001"><a xlink:title="Parallel Bairstow root&#45;finding methods for real polynomials.">
<polygon fill="#999999" stroke="#666666" points="138.23,-129 14.23,-129 14.23,-110 138.23,-110 138.23,-129"/>
<text text-anchor="middle" x="76.23" y="-117" font-family="Helvetica,sans-Serif" font-size="10.00">ginger/rootfinding.hpp</text>
</a>
</g>
</g>
<!-- Node2 -->
<g id="Node000002" class="node">
<title>Node2</title>
<g id="a_Node000002"><a xlink:title=" ">
<polygon fill="#e0e0e0" stroke="#999999" points="66.73,-19 21.73,-19 21.73,0 66.73,0 66.73,-19"/>
<text text-anchor="middle" x="44.23" y="-7" font-family="Helvetica,sans-Serif" font-size="10.00">utility</text>
</a>
</g>
</g>
<!-- Node1&#45;&gt;Node2 -->
<g id="edge1_Node000001_Node000002" class="edge">
<title>Node1&#45;&gt;Node2</title>
<g id="a_edge1_Node000001_Node000002"><a xlink:title=" ">
<path fill="none" stroke="#63b8ff" d="M49.66,-109.94C33.09,-103.06 13.11,-91.6 3.23,-74 -6.37,-56.91 9.18,-38.15 23.81,-25.48"/>
<polygon fill="#63b8ff" stroke="#63b8ff" points="26.1,-28.13 31.67,-19.12 21.7,-22.69 26.1,-28.13"/>
</a>
</g>
</g>
<!-- Node3 -->
<g id="Node000003" class="node">
<title>Node3</title>
<g id="a_Node000003"><a xlink:title=" ">
<polygon fill="#e0e0e0" stroke="#999999" points="59.73,-74 12.73,-74 12.73,-55 59.73,-55 59.73,-74"/>
<text text-anchor="middle" x="36.23" y="-62" font-family="Helvetica,sans-Serif" font-size="10.00">vector</text>
</a>
</g>
</g>
<!-- Node1&#45;&gt;Node3 -->
<g id="edge2_Node000001_Node000003" class="edge">
<title>Node1&#45;&gt;Node3</title>
<g id="a_edge2_Node000001_Node000003"><a xlink:title=" ">
<path fill="none" stroke="#63b8ff" d="M69.62,-109.75C63.97,-102.26 55.68,-91.28 48.77,-82.13"/>
<polygon fill="#63b8ff" stroke="#63b8ff" points="51.53,-79.96 42.71,-74.09 45.94,-84.18 51.53,-79.96"/>
</a>
</g>
</g>
<!-- Node4 -->
<g id="Node000004" class="node">
<title>Node4</title>
<g id="a_Node000004"><a xlink:href="matrix2_8hpp.html" target="_top" xlink:title="2x2 matrix template for polynomial root&#45;finding">
<polygon fill="white" stroke="#666666" points="154.23,-74 78.23,-74 78.23,-55 154.23,-55 154.23,-74"/>
<text text-anchor="middle" x="116.23" y="-62" font-family="Helvetica,sans-Serif" font-size="10.00">matrix2.hpp</text>
</a>
</g>
</g>
<!-- Node1&#45;&gt;Node4 -->
<g id="edge3_Node000001_Node000004" class="edge">
<title>Node1&#45;&gt;Node4</title>
<g id="a_edge3_Node000001_Node000004"><a xlink:title=" ">
<path fill="none" stroke="#63b8ff" d="M82.83,-109.75C88.48,-102.26 96.77,-91.28 103.68,-82.13"/>
<polygon fill="#63b8ff" stroke="#63b8ff" points="106.51,-84.18 109.74,-74.09 100.93,-79.96 106.51,-84.18"/>
</a>
</g>
</g>
<!-- Node5 -->
<g id="Node000005" class="node">
<title>Node5</title>
<g id="a_Node000005"><a xlink:href="vector2_8hpp.html" target="_top" xlink:title=" ">
<polygon fill="white" stroke="#666666" points="186.23,-19 112.23,-19 112.23,0 186.23,0 186.23,-19"/>
<text text-anchor="middle" x="149.23" y="-7" font-family="Helvetica,sans-Serif" font-size="10.00">vector2.hpp</text>
</a>
</g>
</g>
<!-- Node1&#45;&gt;Node5 -->
<g id="edge6_Node000001_Node000005" class="edge">
<title>Node1&#45;&gt;Node5</title>
<g id="a_edge6_Node000001_Node000005"><a xlink:title=" ">
<path fill="none" stroke="#63b8ff" d="M111.67,-109.99C130.48,-103.48 151.98,-92.38 163.23,-74 171.68,-60.19 166.26,-41.92 159.87,-28.52"/>
<polygon fill="#63b8ff" stroke="#63b8ff" points="162.79,-26.56 155,-19.38 156.61,-29.85 162.79,-26.56"/>
</a>
</g>
</g>
<!-- Node4&#45;&gt;Node2 -->
<g id="edge4_Node000004_Node000002" class="edge">
<title>Node4&#45;&gt;Node2</title>
<g id="a_edge4_Node000004_Node000002"><a xlink:title=" ">
<path fill="none" stroke="#63b8ff" d="M104.66,-54.98C93.81,-47 77.35,-34.88 64.34,-25.31"/>
<polygon fill="#63b8ff" stroke="#63b8ff" points="66.13,-22.28 56,-19.17 61.98,-27.92 66.13,-22.28"/>
</a>
</g>
</g>
<!-- Node4&#45;&gt;Node5 -->
<g id="edge5_Node000004_Node000005" class="edge">
<title>Node4&#45;&gt;Node5</title>
<g id="a_edge5_Node000004_Node000005"><a xlink:title=" ">
<path fill="none" stroke="#63b8ff" d="M121.68,-54.75C126.24,-47.42 132.89,-36.73 138.52,-27.7"/>
<polygon fill="#63b8ff" stroke="#63b8ff" points="141.56,-29.43 143.88,-19.09 135.62,-25.73 141.56,-29.43"/>
</a>
</g>
</g>
</g>
</svg>
