<?xml version="1.0" encoding="UTF-8" standalone="no"?>
<!DOCTYPE svg PUBLIC "-//W3C//DTD SVG 1.1//EN"
 "http://www.w3.org/Graphics/SVG/1.1/DTD/svg11.dtd">
<!-- Generated by graphviz version 2.43.0 (0)
 -->
<!-- Title: fun::detail::RobinSlNode&lt; T &gt; Pages: 1 -->
<svg width="214pt" height="93pt"
 viewBox="0.00 0.00 214.00 93.00" xmlns="http://www.w3.org/2000/svg" xmlns:xlink="http://www.w3.org/1999/xlink">
<g id="graph0" class="graph" transform="scale(1 1) rotate(0) translate(4 89)">
<title>fun::detail::RobinSlNode&lt; T &gt;</title>
<!-- Node1 -->
<g id="Node000001" class="node">
<title>Node1</title>
<g id="a_Node000001"><a xlink:title="A node in the Robin Hood hashing linked list.">
<polygon fill="#999999" stroke="#666666" points="163,-19 0,-19 0,0 163,0 163,-19"/>
<text text-anchor="middle" x="81.5" y="-7" font-family="Helvetica,sans-Serif" font-size="10.00">fun::detail::RobinSlNode&lt; T &gt;</text>
</a>
</g>
</g>
<!-- Node2 -->
<g id="Node000002" class="node">
<title>Node2</title>
<g id="a_Node000002"><a xlink:href="structfun_1_1detail_1_1RobinSlNode.html" target="_top" xlink:title="A node in the Robin Hood hashing linked list.">
<polygon fill="white" stroke="#666666" points="163,-85 0,-85 0,-66 163,-66 163,-85"/>
<text text-anchor="middle" x="81.5" y="-73" font-family="Helvetica,sans-Serif" font-size="10.00">fun::detail::RobinSlNode&lt; T &gt;</text>
</a>
</g>
</g>
<!-- Node2&#45;&gt;Node1 -->
<g id="edge1_Node000001_Node000002" class="edge">
<title>Node2&#45;&gt;Node1</title>
<g id="a_edge1_Node000001_Node000002"><a xlink:title=" ">
<path fill="none" stroke="#9a32cd" stroke-dasharray="5,2" d="M81.5,-55.58C81.5,-43.63 81.5,-28.72 81.5,-19.41"/>
<polygon fill="#9a32cd" stroke="#9a32cd" points="78,-55.87 81.5,-65.87 85,-55.87 78,-55.87"/>
</a>
</g>
<text text-anchor="middle" x="94" y="-40" font-family="Helvetica,sans-Serif" font-size="10.00" fill="grey"> next</text>
</g>
<!-- Node2&#45;&gt;Node2 -->
<g id="edge2_Node000002_Node000002" class="edge">
<title>Node2&#45;&gt;Node2</title>
<g id="a_edge2_Node000002_Node000002"><a xlink:title=" ">
<path fill="none" stroke="#9a32cd" stroke-dasharray="5,2" d="M173.13,-79.48C178.07,-78.51 181,-77.18 181,-75.5 181,-72.88 173.86,-71.11 163.09,-70.21"/>
<polygon fill="#9a32cd" stroke="#9a32cd" points="172.55,-76.03 163.09,-80.79 173.46,-82.97 172.55,-76.03"/>
</a>
</g>
<text text-anchor="middle" x="193.5" y="-73" font-family="Helvetica,sans-Serif" font-size="10.00" fill="grey"> next</text>
</g>
</g>
</svg>
