<?xml version="1.0" encoding="UTF-8" standalone="no"?>
<!DOCTYPE svg PUBLIC "-//W3C//DTD SVG 1.1//EN"
 "http://www.w3.org/Graphics/SVG/1.1/DTD/svg11.dtd">
<!-- Generated by graphviz version 2.43.0 (0)
 -->
<!-- Title: ginger/vector2.hpp Pages: 1 -->
<svg width="404pt" height="192pt"
 viewBox="0.00 0.00 403.78 192.00" xmlns="http://www.w3.org/2000/svg" xmlns:xlink="http://www.w3.org/1999/xlink">
<g id="graph0" class="graph" transform="scale(1 1) rotate(0) translate(4 188)">
<title>ginger/vector2.hpp</title>
<!-- Node1 -->
<g id="Node000001" class="node">
<title>Node1</title>
<g id="a_Node000001"><a xlink:title=" ">
<polygon fill="#999999" stroke="#666666" points="212.78,-184 104.78,-184 104.78,-165 212.78,-165 212.78,-184"/>
<text text-anchor="middle" x="158.78" y="-172" font-family="Helvetica,sans-Serif" font-size="10.00">ginger/vector2.hpp</text>
</a>
</g>
</g>
<!-- Node2 -->
<g id="Node000002" class="node">
<title>Node2</title>
<g id="a_Node000002"><a xlink:href="autocorr_8hpp.html" target="_top" xlink:title="Auto&#45;correlation polynomial root&#45;finding (palindromic polynomials)">
<polygon fill="white" stroke="#666666" points="215.28,-19 104.28,-19 104.28,0 215.28,0 215.28,-19"/>
<text text-anchor="middle" x="159.78" y="-7" font-family="Helvetica,sans-Serif" font-size="10.00">ginger/autocorr.hpp</text>
</a>
</g>
</g>
<!-- Node1&#45;&gt;Node2 -->
<g id="edge1_Node000001_Node000002" class="edge">
<title>Node1&#45;&gt;Node2</title>
<g id="a_edge1_Node000001_Node000002"><a xlink:title=" ">
<path fill="none" stroke="#63b8ff" d="M119.85,-161.81C64.22,-143.09 -27.5,-103.52 8.78,-55 30.63,-25.78 70.76,-14.93 104.15,-11.25"/>
<polygon fill="#63b8ff" stroke="#63b8ff" points="118.85,-165.17 129.45,-164.96 121.03,-158.52 118.85,-165.17"/>
</a>
</g>
</g>
<!-- Node3 -->
<g id="Node000003" class="node">
<title>Node3</title>
<g id="a_Node000003"><a xlink:href="bairstow_8hpp.html" target="_top" xlink:title="Bairstow&#39;s root&#45;finding method with reference&#45;based vectors.">
<polygon fill="white" stroke="#666666" points="131.28,-74 18.28,-74 18.28,-55 131.28,-55 131.28,-74"/>
<text text-anchor="middle" x="74.78" y="-62" font-family="Helvetica,sans-Serif" font-size="10.00">ginger/bairstow.hpp</text>
</a>
</g>
</g>
<!-- Node1&#45;&gt;Node3 -->
<g id="edge2_Node000001_Node000003" class="edge">
<title>Node1&#45;&gt;Node3</title>
<g id="a_edge2_Node000001_Node000003"><a xlink:title=" ">
<path fill="none" stroke="#63b8ff" d="M131.38,-159.92C118.65,-152.37 104.27,-141.9 94.78,-129 82.32,-112.05 77.47,-87.11 75.7,-74.1"/>
<polygon fill="#63b8ff" stroke="#63b8ff" points="129.83,-163.06 140.26,-164.88 133.24,-156.95 129.83,-163.06"/>
</a>
</g>
</g>
<!-- Node4 -->
<g id="Node000004" class="node">
<title>Node4</title>
<g id="a_Node000004"><a xlink:href="matrix2_8hpp.html" target="_top" xlink:title="2x2 matrix template for polynomial root&#45;finding">
<polygon fill="white" stroke="#666666" points="213.78,-129 103.78,-129 103.78,-110 213.78,-110 213.78,-129"/>
<text text-anchor="middle" x="158.78" y="-117" font-family="Helvetica,sans-Serif" font-size="10.00">ginger/matrix2.hpp</text>
</a>
</g>
</g>
<!-- Node1&#45;&gt;Node4 -->
<g id="edge3_Node000001_Node000004" class="edge">
<title>Node1&#45;&gt;Node4</title>
<g id="a_edge3_Node000001_Node000004"><a xlink:title=" ">
<path fill="none" stroke="#63b8ff" d="M158.78,-154.66C158.78,-145.93 158.78,-135.99 158.78,-129.09"/>
<polygon fill="#63b8ff" stroke="#63b8ff" points="155.28,-154.75 158.78,-164.75 162.28,-154.75 155.28,-154.75"/>
</a>
</g>
</g>
<!-- Node5 -->
<g id="Node000005" class="node">
<title>Node5</title>
<g id="a_Node000005"><a xlink:href="rootfinding_8hpp.html" target="_top" xlink:title="Parallel Bairstow root&#45;finding methods for real polynomials.">
<polygon fill="white" stroke="#666666" points="311.78,-74 187.78,-74 187.78,-55 311.78,-55 311.78,-74"/>
<text text-anchor="middle" x="249.78" y="-62" font-family="Helvetica,sans-Serif" font-size="10.00">ginger/rootfinding.hpp</text>
</a>
</g>
</g>
<!-- Node1&#45;&gt;Node5 -->
<g id="edge8_Node000001_Node000005" class="edge">
<title>Node1&#45;&gt;Node5</title>
<g id="a_edge8_Node000001_Node000005"><a xlink:title=" ">
<path fill="none" stroke="#63b8ff" d="M185.14,-159.82C197.86,-152.15 212.55,-141.59 222.78,-129 236.53,-112.08 244.38,-87.12 247.76,-74.11"/>
<polygon fill="#63b8ff" stroke="#63b8ff" points="183.24,-156.87 176.31,-164.88 186.73,-162.94 183.24,-156.87"/>
</a>
</g>
</g>
<!-- Node6 -->
<g id="Node000006" class="node">
<title>Node6</title>
<g id="a_Node000006"><a xlink:href="vector2__ref_8hpp.html" target="_top" xlink:title=" ">
<polygon fill="white" stroke="#666666" points="395.78,-129 269.78,-129 269.78,-110 395.78,-110 395.78,-129"/>
<text text-anchor="middle" x="332.78" y="-117" font-family="Helvetica,sans-Serif" font-size="10.00">ginger/vector2_ref.hpp</text>
</a>
</g>
</g>
<!-- Node1&#45;&gt;Node6 -->
<g id="edge9_Node000001_Node000006" class="edge">
<title>Node1&#45;&gt;Node6</title>
<g id="a_edge9_Node000001_Node000006"><a xlink:title=" ">
<path fill="none" stroke="#63b8ff" d="M196.35,-162.06C228.87,-152.15 275.18,-138.04 304.61,-129.08"/>
<polygon fill="#63b8ff" stroke="#63b8ff" points="195.28,-158.72 186.74,-164.98 197.32,-165.42 195.28,-158.72"/>
</a>
</g>
</g>
<!-- Node4&#45;&gt;Node2 -->
<g id="edge4_Node000004_Node000002" class="edge">
<title>Node4&#45;&gt;Node2</title>
<g id="a_edge4_Node000004_Node000002"><a xlink:title=" ">
<path fill="none" stroke="#63b8ff" d="M158.96,-99.48C159.18,-75.84 159.54,-36.5 159.7,-19.16"/>
<polygon fill="#63b8ff" stroke="#63b8ff" points="155.46,-99.63 158.86,-109.66 162.46,-99.69 155.46,-99.63"/>
</a>
</g>
</g>
<!-- Node4&#45;&gt;Node3 -->
<g id="edge5_Node000004_Node000003" class="edge">
<title>Node4&#45;&gt;Node3</title>
<g id="a_edge5_Node000004_Node000003"><a xlink:title=" ">
<path fill="none" stroke="#63b8ff" d="M136.47,-104.42C121.23,-94.81 101.51,-82.37 88.52,-74.17"/>
<polygon fill="#63b8ff" stroke="#63b8ff" points="134.96,-107.61 145.28,-109.98 138.7,-101.69 134.96,-107.61"/>
</a>
</g>
</g>
<!-- Node4&#45;&gt;Node5 -->
<g id="edge6_Node000004_Node000005" class="edge">
<title>Node4&#45;&gt;Node5</title>
<g id="a_edge6_Node000004_Node000005"><a xlink:title=" ">
<path fill="none" stroke="#63b8ff" d="M182.48,-104.7C199.06,-95.04 220.69,-82.44 234.89,-74.17"/>
<polygon fill="#63b8ff" stroke="#63b8ff" points="180.28,-101.93 173.4,-109.98 183.8,-107.98 180.28,-101.93"/>
</a>
</g>
</g>
<!-- Node5&#45;&gt;Node2 -->
<g id="edge7_Node000005_Node000002" class="edge">
<title>Node5&#45;&gt;Node2</title>
<g id="a_edge7_Node000005_Node000002"><a xlink:title=" ">
<path fill="none" stroke="#63b8ff" d="M226.34,-49.7C209.95,-40.04 188.55,-27.44 174.5,-19.17"/>
<polygon fill="#63b8ff" stroke="#63b8ff" points="224.93,-52.93 235.32,-54.98 228.48,-46.89 224.93,-52.93"/>
</a>
</g>
</g>
</g>
</svg>
