<?xml version="1.0" encoding="UTF-8" standalone="no"?>
<!DOCTYPE svg PUBLIC "-//W3C//DTD SVG 1.1//EN"
 "http://www.w3.org/Graphics/SVG/1.1/DTD/svg11.dtd">
<!-- Generated by graphviz version 2.43.0 (0)
 -->
<!-- Title: ginger/vector2.hpp Pages: 1 -->
<svg width="576pt" height="324pt"
 viewBox="0.00 0.00 576.00 324.00" xmlns="http://www.w3.org/2000/svg" xmlns:xlink="http://www.w3.org/1999/xlink">
<g id="graph0" class="graph" transform="scale(1 1) rotate(0) translate(4 320)">
<title>ginger/vector2.hpp</title>
<!-- Node1 -->
<g id="Node000001" class="node">
<title>Node1</title>
<g id="a_Node000001"><a xlink:title=" ">
<polygon fill="#999999" stroke="#666666" points="416.5,-316 308.5,-316 308.5,-297 416.5,-297 416.5,-316"/>
<text text-anchor="middle" x="362.5" y="-304" font-family="Helvetica,sans-Serif" font-size="10.00">ginger/vector2.hpp</text>
</a>
</g>
</g>
<!-- Node2 -->
<g id="Node000002" class="node">
<title>Node2</title>
<g id="a_Node000002"><a xlink:href="bairstow_8hpp.html" target="_top" xlink:title="Bairstow&#39;s root&#45;finding method with reference&#45;based vectors.">
<polygon fill="white" stroke="#666666" points="309,-206 196,-206 196,-187 309,-187 309,-206"/>
<text text-anchor="middle" x="252.5" y="-194" font-family="Helvetica,sans-Serif" font-size="10.00">ginger/bairstow.hpp</text>
</a>
</g>
</g>
<!-- Node1&#45;&gt;Node2 -->
<g id="edge1_Node000001_Node000002" class="edge">
<title>Node1&#45;&gt;Node2</title>
<g id="a_edge1_Node000001_Node000002"><a xlink:title=" ">
<path fill="none" stroke="#63b8ff" d="M305.25,-293.71C287.16,-287.11 268.93,-276.86 257.5,-261 245.74,-244.67 248.17,-219.46 250.56,-206.26"/>
<polygon fill="#63b8ff" stroke="#63b8ff" points="304.36,-297.1 314.95,-296.93 306.56,-290.46 304.36,-297.1"/>
</a>
</g>
</g>
<!-- Node3 -->
<g id="Node000003" class="node">
<title>Node3</title>
<g id="a_Node000003"><a xlink:href="matrix2_8hpp.html" target="_top" xlink:title="2x2 matrix template for polynomial root&#45;finding">
<polygon fill="white" stroke="#666666" points="376.5,-261 266.5,-261 266.5,-242 376.5,-242 376.5,-261"/>
<text text-anchor="middle" x="321.5" y="-249" font-family="Helvetica,sans-Serif" font-size="10.00">ginger/matrix2.hpp</text>
</a>
</g>
</g>
<!-- Node1&#45;&gt;Node3 -->
<g id="edge2_Node000001_Node000003" class="edge">
<title>Node1&#45;&gt;Node3</title>
<g id="a_edge2_Node000001_Node000003"><a xlink:title=" ">
<path fill="none" stroke="#63b8ff" d="M349.48,-288.67C342.38,-279.5 333.9,-268.52 328.14,-261.09"/>
<polygon fill="#63b8ff" stroke="#63b8ff" points="346.84,-290.98 355.73,-296.75 352.38,-286.7 346.84,-290.98"/>
</a>
</g>
</g>
<!-- Node4 -->
<g id="Node000004" class="node">
<title>Node4</title>
<g id="a_Node000004"><a xlink:href="rootfinding_8hpp.html" target="_top" xlink:title="Parallel Bairstow root&#45;finding methods for real polynomials.">
<polygon fill="white" stroke="#666666" points="458.5,-206 334.5,-206 334.5,-187 458.5,-187 458.5,-206"/>
<text text-anchor="middle" x="396.5" y="-194" font-family="Helvetica,sans-Serif" font-size="10.00">ginger/rootfinding.hpp</text>
</a>
</g>
</g>
<!-- Node1&#45;&gt;Node4 -->
<g id="edge16_Node000001_Node000004" class="edge">
<title>Node1&#45;&gt;Node4</title>
<g id="a_edge16_Node000001_Node000004"><a xlink:title=" ">
<path fill="none" stroke="#63b8ff" d="M372.99,-288.24C377.46,-280.21 382.35,-270.38 385.5,-261 391.85,-242.12 394.68,-218.8 395.83,-206.34"/>
<polygon fill="#63b8ff" stroke="#63b8ff" points="369.91,-286.58 367.91,-296.98 375.96,-290.1 369.91,-286.58"/>
</a>
</g>
</g>
<!-- Node11 -->
<g id="Node000011" class="node">
<title>Node11</title>
<g id="a_Node000011"><a xlink:href="vector2__ref_8hpp.html" target="_top" xlink:title=" ">
<polygon fill="white" stroke="#666666" points="558.5,-261 432.5,-261 432.5,-242 558.5,-242 558.5,-261"/>
<text text-anchor="middle" x="495.5" y="-249" font-family="Helvetica,sans-Serif" font-size="10.00">ginger/vector2_ref.hpp</text>
</a>
</g>
</g>
<!-- Node1&#45;&gt;Node11 -->
<g id="edge17_Node000001_Node000011" class="edge">
<title>Node1&#45;&gt;Node11</title>
<g id="a_edge17_Node000001_Node000011"><a xlink:title=" ">
<path fill="none" stroke="#63b8ff" d="M393.47,-293.16C418.09,-283.35 451.91,-269.87 473.74,-261.17"/>
<polygon fill="#63b8ff" stroke="#63b8ff" points="391.86,-290.03 383.87,-296.98 394.45,-296.53 391.86,-290.03"/>
</a>
</g>
</g>
<!-- Node3&#45;&gt;Node2 -->
<g id="edge3_Node000003_Node000002" class="edge">
<title>Node3&#45;&gt;Node2</title>
<g id="a_edge3_Node000003_Node000002"><a xlink:title=" ">
<path fill="none" stroke="#63b8ff" d="M302.46,-235.88C290.04,-226.34 274.26,-214.21 263.79,-206.17"/>
<polygon fill="#63b8ff" stroke="#63b8ff" points="300.35,-238.67 310.41,-241.98 304.62,-233.12 300.35,-238.67"/>
</a>
</g>
</g>
<!-- Node3&#45;&gt;Node4 -->
<g id="edge4_Node000003_Node000004" class="edge">
<title>Node3&#45;&gt;Node4</title>
<g id="a_edge4_Node000003_Node000004"><a xlink:title=" ">
<path fill="none" stroke="#63b8ff" d="M341.81,-236.15C355.36,-226.57 372.74,-214.29 384.23,-206.17"/>
<polygon fill="#63b8ff" stroke="#63b8ff" points="339.7,-233.36 333.55,-241.98 343.74,-239.07 339.7,-233.36"/>
</a>
</g>
</g>
<!-- Node5 -->
<g id="Node000005" class="node">
<title>Node5</title>
<g id="a_Node000005"><a xlink:href="autocorr_8hpp.html" target="_top" xlink:title="Auto&#45;correlation polynomial root&#45;finding (palindromic polynomials)">
<polygon fill="white" stroke="#666666" points="282,-145.5 171,-145.5 171,-126.5 282,-126.5 282,-145.5"/>
<text text-anchor="middle" x="226.5" y="-133.5" font-family="Helvetica,sans-Serif" font-size="10.00">ginger/autocorr.hpp</text>
</a>
</g>
</g>
<!-- Node4&#45;&gt;Node5 -->
<g id="edge5_Node000004_Node000005" class="edge">
<title>Node4&#45;&gt;Node5</title>
<g id="a_edge5_Node000004_Node000005"><a xlink:title=" ">
<path fill="none" stroke="#63b8ff" d="M362.13,-183.67C329.25,-172.36 280.47,-155.57 251.25,-145.52"/>
<polygon fill="#63b8ff" stroke="#63b8ff" points="361.19,-187.05 371.78,-186.99 363.46,-180.43 361.19,-187.05"/>
</a>
</g>
</g>
<!-- Node7 -->
<g id="Node000007" class="node">
<title>Node7</title>
<g id="a_Node000007"><a xlink:href="solve_8hpp.html" target="_top" xlink:title="Facade entry points that auto&#45;select the execution policy.">
<polygon fill="white" stroke="#666666" points="369.5,-19 271.5,-19 271.5,0 369.5,0 369.5,-19"/>
<text text-anchor="middle" x="320.5" y="-7" font-family="Helvetica,sans-Serif" font-size="10.00">ginger/solve.hpp</text>
</a>
</g>
</g>
<!-- Node4&#45;&gt;Node7 -->
<g id="edge15_Node000004_Node000007" class="edge">
<title>Node4&#45;&gt;Node7</title>
<g id="a_edge15_Node000004_Node000007"><a xlink:title=" ">
<path fill="none" stroke="#63b8ff" d="M391.37,-176.91C383.53,-149.54 367.34,-97.1 347.5,-55 341.34,-41.92 332.33,-27.81 326.44,-19.06"/>
<polygon fill="#63b8ff" stroke="#63b8ff" points="388.05,-178.02 394.13,-186.7 394.79,-176.12 388.05,-178.02"/>
</a>
</g>
</g>
<!-- Node9 -->
<g id="Node000009" class="node">
<title>Node9</title>
<g id="a_Node000009"><a xlink:href="rootfinding__atomic_8hpp.html" target="_top" xlink:title="Parallel Bairstow root&#45;finding methods for real polynomials (atomic)">
<polygon fill="white" stroke="#666666" points="499,-85 396,-85 396,-55 499,-55 499,-85"/>
<text text-anchor="start" x="404" y="-73" font-family="Helvetica,sans-Serif" font-size="10.00">ginger/rootfinding</text>
<text text-anchor="middle" x="447.5" y="-62" font-family="Helvetica,sans-Serif" font-size="10.00">_atomic.hpp</text>
</a>
</g>
</g>
<!-- Node4&#45;&gt;Node9 -->
<g id="edge11_Node000004_Node000009" class="edge">
<title>Node4&#45;&gt;Node9</title>
<g id="a_edge11_Node000004_Node000009"><a xlink:title=" ">
<path fill="none" stroke="#63b8ff" d="M403.84,-177.58C414.06,-152.63 432.37,-107.92 441.7,-85.16"/>
<polygon fill="#63b8ff" stroke="#63b8ff" points="400.56,-176.36 400.01,-186.94 407.03,-179.02 400.56,-176.36"/>
</a>
</g>
</g>
<!-- Node10 -->
<g id="Node000010" class="node">
<title>Node10</title>
<g id="a_Node000010"><a xlink:href="rootfinding__mt_8hpp.html" target="_top" xlink:title="Parallel Bairstow root&#45;finding methods for real polynomials (MT)">
<polygon fill="white" stroke="#666666" points="568,-151 465,-151 465,-121 568,-121 568,-151"/>
<text text-anchor="start" x="473" y="-139" font-family="Helvetica,sans-Serif" font-size="10.00">ginger/rootfinding</text>
<text text-anchor="middle" x="516.5" y="-128" font-family="Helvetica,sans-Serif" font-size="10.00">_mt.hpp</text>
</a>
</g>
</g>
<!-- Node4&#45;&gt;Node10 -->
<g id="edge13_Node000004_Node000010" class="edge">
<title>Node4&#45;&gt;Node10</title>
<g id="a_edge13_Node000004_Node000010"><a xlink:title=" ">
<path fill="none" stroke="#63b8ff" d="M422.98,-182.59C442.06,-173.29 467.78,-160.75 487.42,-151.18"/>
<polygon fill="#63b8ff" stroke="#63b8ff" points="421.4,-179.47 413.95,-186.99 424.47,-185.76 421.4,-179.47"/>
</a>
</g>
</g>
<!-- Node6 -->
<g id="Node000006" class="node">
<title>Node6</title>
<g id="a_Node000006"><a xlink:href="autocorr__atomic_8hpp.html" target="_top" xlink:title="Auto&#45;correlation polynomial root&#45;finding (palindromic polynomials) (atomic)">
<polygon fill="white" stroke="#666666" points="151,-79.5 0,-79.5 0,-60.5 151,-60.5 151,-79.5"/>
<text text-anchor="middle" x="75.5" y="-67.5" font-family="Helvetica,sans-Serif" font-size="10.00">ginger/autocorr_atomic.hpp</text>
</a>
</g>
</g>
<!-- Node5&#45;&gt;Node6 -->
<g id="edge6_Node000005_Node000006" class="edge">
<title>Node5&#45;&gt;Node6</title>
<g id="a_edge6_Node000005_Node000006"><a xlink:title=" ">
<path fill="none" stroke="#63b8ff" d="M196.67,-122.36C166.92,-109.75 121.99,-90.71 96.02,-79.7"/>
<polygon fill="#63b8ff" stroke="#63b8ff" points="195.56,-125.69 206.14,-126.37 198.29,-119.24 195.56,-125.69"/>
</a>
</g>
</g>
<!-- Node5&#45;&gt;Node7 -->
<g id="edge10_Node000005_Node000007" class="edge">
<title>Node5&#45;&gt;Node7</title>
<g id="a_edge10_Node000005_Node000007"><a xlink:title=" ">
<path fill="none" stroke="#63b8ff" d="M212.37,-118.4C199.64,-101.31 184.85,-74.51 198.5,-55 214.92,-31.54 245.07,-20.4 271.29,-15.14"/>
<polygon fill="#63b8ff" stroke="#63b8ff" points="209.73,-120.7 218.68,-126.36 215.21,-116.35 209.73,-120.7"/>
</a>
</g>
</g>
<!-- Node8 -->
<g id="Node000008" class="node">
<title>Node8</title>
<g id="a_Node000008"><a xlink:href="autocorr__mt_8hpp.html" target="_top" xlink:title="Auto&#45;correlation polynomial root&#45;finding (palindromic polynomials) (MT)">
<polygon fill="white" stroke="#666666" points="339,-79.5 208,-79.5 208,-60.5 339,-60.5 339,-79.5"/>
<text text-anchor="middle" x="273.5" y="-67.5" font-family="Helvetica,sans-Serif" font-size="10.00">ginger/autocorr_mt.hpp</text>
</a>
</g>
</g>
<!-- Node5&#45;&gt;Node8 -->
<g id="edge8_Node000005_Node000008" class="edge">
<title>Node5&#45;&gt;Node8</title>
<g id="a_edge8_Node000005_Node000008"><a xlink:title=" ">
<path fill="none" stroke="#63b8ff" d="M238.79,-118.27C247.8,-105.99 259.7,-89.8 266.96,-79.91"/>
<polygon fill="#63b8ff" stroke="#63b8ff" points="235.94,-116.24 232.84,-126.37 241.58,-120.38 235.94,-116.24"/>
</a>
</g>
</g>
<!-- Node6&#45;&gt;Node7 -->
<g id="edge7_Node000006_Node000007" class="edge">
<title>Node6&#45;&gt;Node7</title>
<g id="a_edge7_Node000006_Node000007"><a xlink:title=" ">
<path fill="none" stroke="#63b8ff" d="M121.11,-58.11C168.46,-46.8 241.54,-29.35 284.83,-19.02"/>
<polygon fill="#63b8ff" stroke="#63b8ff" points="120.04,-54.77 111.13,-60.49 121.66,-61.58 120.04,-54.77"/>
</a>
</g>
</g>
<!-- Node8&#45;&gt;Node7 -->
<g id="edge9_Node000008_Node000007" class="edge">
<title>Node8&#45;&gt;Node7</title>
<g id="a_edge9_Node000008_Node000007"><a xlink:title=" ">
<path fill="none" stroke="#63b8ff" d="M286.8,-52.45C295.5,-41.62 306.51,-27.91 313.54,-19.17"/>
<polygon fill="#63b8ff" stroke="#63b8ff" points="283.97,-50.38 280.44,-60.37 289.43,-54.76 283.97,-50.38"/>
</a>
</g>
</g>
<!-- Node9&#45;&gt;Node7 -->
<g id="edge12_Node000009_Node000007" class="edge">
<title>Node9&#45;&gt;Node7</title>
<g id="a_edge12_Node000009_Node000007"><a xlink:title=" ">
<path fill="none" stroke="#63b8ff" d="M407.93,-50.77C385.03,-40.22 357.26,-27.43 339.26,-19.14"/>
<polygon fill="#63b8ff" stroke="#63b8ff" points="406.53,-53.98 417.08,-54.99 409.46,-47.62 406.53,-53.98"/>
</a>
</g>
</g>
<!-- Node10&#45;&gt;Node7 -->
<g id="edge14_Node000010_Node000007" class="edge">
<title>Node10&#45;&gt;Node7</title>
<g id="a_edge14_Node000010_Node000007"><a xlink:title=" ">
<path fill="none" stroke="#63b8ff" d="M520.52,-110.84C522.01,-93.26 520.77,-69.99 507.5,-55 489.53,-34.7 419.02,-22.24 369.92,-15.85"/>
<polygon fill="#63b8ff" stroke="#63b8ff" points="517.03,-110.59 519.33,-120.93 523.98,-111.41 517.03,-110.59"/>
</a>
</g>
</g>
</g>
</svg>
